<?xml version="1.0" standalone="no"?>
<!DOCTYPE svg PUBLIC "-//W3C//DTD SVG 1.1//EN" "http://www.w3.org/Graphics/SVG/1.1/DTD/svg11.dtd" >
<svg xmlns="http://www.w3.org/2000/svg">
<metadata></metadata>
<defs>
<font id="unit-blackitalicregular" horiz-adv-x="1040" >
<font-face units-per-em="2048" ascent="1462" descent="-586" />
<missing-glyph horiz-adv-x="452" />
<glyph horiz-adv-x="2048" />
<glyph horiz-adv-x="2048" />
<glyph unicode="&#xd;" horiz-adv-x="452" />
<glyph unicode=" "  horiz-adv-x="452" />
<glyph unicode="&#x09;" horiz-adv-x="452" />
<glyph unicode="&#xa0;" horiz-adv-x="452" />
<glyph unicode="!" horiz-adv-x="614" d="M55 160q0 76 52.5 129t128.5 53t128 -53t52 -129t-52 -128t-128 -52t-128.5 52t-52.5 128zM143 420l162 1007h385l-297 -1007h-250z" />
<glyph unicode="&#x22;" horiz-adv-x="1009" d="M174 815l133 635h309l-133 -635h-309zM649 815l133 635h310l-134 -635h-309z" />
<glyph unicode="#" horiz-adv-x="1062" d="M51 358l43 199h158l59 223h-147l43 199h155l91 338h202l-90 -338h156l90 338h203l-90 -338h147l-43 -199h-156l-59 -223h150l-43 -199h-160l-94 -358h-203l94 358h-156l-94 -358h-203l95 358h-148zM455 557h155l60 223h-156z" />
<glyph unicode="$" horiz-adv-x="1017" d="M-25 127l113 274q57 -55 138 -95t173 -40q82 0 118 37t36 94q0 29 -14.5 50.5t-40 40t-59 36t-70.5 37.5q-41 23 -79 51.5t-67.5 68.5t-47 94t-17.5 130q0 104 29.5 184t82 133.5t125 83t160.5 35.5l55 263h281l-62 -293q53 -16 97.5 -37t81.5 -43l-113 -262 q-53 39 -120.5 63.5t-139.5 24.5q-123 0 -123 -115q0 -27 13.5 -46t36 -36.5t53 -34t65.5 -34.5q45 -23 89 -52.5t78 -71.5t55.5 -99.5t21.5 -135.5q0 -92 -27 -172t-79 -140.5t-130 -98t-180 -46.5l-51 -243h-281l55 264q-94 20 -154.5 55t-101.5 76z" />
<glyph unicode="%" horiz-adv-x="1763" d="M139 942q0 98 39 188.5t105 143.5q45 35 104 52t123 17q154 0 241 -80.5t87 -224.5q0 -106 -39 -192t-109 -141q-47 -37 -106.5 -55.5t-120.5 -18.5q-152 0 -239 83t-85 228zM295 0l965 1317h264l-965 -1317h-264zM397 893q0 -43 15.5 -62.5t52.5 -19.5q35 0 57 29 q12 16 22.5 45.5t17.5 63.5t12.5 68t5.5 60q2 47 -12.5 68.5t-49.5 21.5q-39 0 -61 -30q-12 -16 -23.5 -47t-18.5 -66t-12.5 -69.5t-5.5 -61.5zM983 285q0 98 39 188t104 143q45 35 104.5 52.5t123.5 17.5q154 0 240.5 -81t86.5 -224q0 -106 -38.5 -192.5t-108.5 -141.5 q-47 -37 -106.5 -55.5t-120.5 -18.5q-152 0 -239 83t-85 229zM1241 236q0 -43 15.5 -62.5t52.5 -19.5q35 0 57 28q12 16 22.5 46t17.5 64t12 67.5t5 60.5q2 47 -12 68.5t-49 21.5q-39 0 -62 -31q-12 -16 -23 -47t-18.5 -65.5t-12.5 -69.5t-5 -61z" />
<glyph unicode="&#x26;" horiz-adv-x="1323" d="M25 369q0 154 96 266.5t268 171.5q-41 63 -56.5 130t-15.5 126q0 84 29 155.5t83 124t132 82t176 29.5q182 0 277.5 -89t95.5 -232q0 -141 -91 -227.5t-247 -145.5l152 -256q31 53 55.5 115.5t44.5 132.5l236 -39q-29 -123 -80.5 -233.5t-122.5 -203.5l164 -276h-363 l-39 63q-72 -43 -152.5 -66.5t-166.5 -23.5q-223 0 -349 103.5t-126 292.5zM379 383q0 -86 45 -127t121 -41q80 0 160 49l-209 359q-53 -29 -85 -86.5t-32 -153.5zM633 1067q0 -35 8 -66.5t23 -54.5l18 -33q78 47 105.5 94.5t27.5 112.5q0 43 -16.5 72t-59.5 29 q-33 0 -53 -13.5t-32.5 -35t-16.5 -49t-4 -56.5z" />
<glyph unicode="'" horiz-adv-x="534" d="M174 815l133 635h309l-133 -635h-309z" />
<glyph unicode="(" horiz-adv-x="727" d="M84 352q0 84 9 184.5t28 202.5q33 182 87 324.5t135 248t192.5 178.5t261.5 116l69 -207q-63 -35 -123.5 -75t-115 -111.5t-100.5 -190.5t-81 -309q-27 -141 -38 -246t-9 -191q2 -172 52.5 -275t121.5 -169l-141 -194q-98 66 -163.5 141.5t-106.5 163.5t-59.5 189 t-18.5 220z" />
<glyph unicode=")" horiz-adv-x="727" d="M-100 -156q63 33 123.5 74t115 112.5t100.5 190.5t80 309q27 141 38.5 246t9.5 191q-2 172 -52.5 275.5t-121.5 168.5l141 195q98 -66 163.5 -141.5t106.5 -164t59.5 -189.5t18.5 -220q0 -84 -9 -184.5t-28 -202.5q-33 -182 -87 -324.5t-135 -249t-192.5 -178 t-261.5 -114.5z" />
<glyph unicode="*" horiz-adv-x="993" d="M188 1055l111 219l217 -94l59 274h261l-62 -287l242 93l57 -234l-285 -92l125 -213l-213 -141l-122 219l-187 -215l-190 155l213 215z" />
<glyph unicode="+" horiz-adv-x="1191" d="M98 479l66 316h323l78 360h328l-78 -360h324l-66 -316h-323l-80 -368h-328l80 368h-324z" />
<glyph unicode="," horiz-adv-x="593" d="M-43 -154q70 20 122 63.5t68 94.5q-53 18 -88.5 64.5t-35.5 107.5q0 39 15 74t41.5 60.5t61.5 41t76 15.5q80 0 138.5 -56.5t58.5 -165.5q0 -98 -37 -174.5t-98.5 -132t-143.5 -90.5t-172 -49z" />
<glyph unicode="-" horiz-adv-x="663" d="M61 418l66 305h491l-65 -305h-492z" />
<glyph unicode="." horiz-adv-x="587" d="M23 174q0 39 15 74t41.5 61.5t61.5 42t76 15.5q39 0 75 -15.5t63.5 -42t43 -61.5t15.5 -74q0 -41 -15.5 -77t-43 -62.5t-63.5 -42t-75 -15.5q-41 0 -76 15.5t-61.5 42t-41.5 62.5t-15 77z" />
<glyph unicode="/" horiz-adv-x="743" d="M-178 -324l874 1899h265l-875 -1899h-264z" />
<glyph unicode="0" horiz-adv-x="1245" d="M80 481q0 90 13 178.5t37 169t56.5 151.5t69.5 126q90 129 213 183t270 54q223 0 353.5 -122.5t130.5 -374.5q0 -80 -12.5 -168t-34 -173t-52 -162t-67.5 -132q-88 -133 -210 -185.5t-272 -52.5q-227 0 -361 127t-134 381zM440 408q-2 -100 35 -138.5t115 -38.5 q57 0 96 29t74 107q18 45 36.5 116.5t34 149.5t25.5 153.5t10 128.5q0 96 -36.5 134t-112.5 38q-59 0 -97 -29.5t-73 -105.5q-18 -45 -38 -116.5t-35 -149.5t-24.5 -152.5t-9.5 -125.5z" />
<glyph unicode="1" horiz-adv-x="976" d="M29 0l55 256h225l129 608l-223 -76l-76 197l498 332h240l-226 -1061h201l-55 -256h-768z" />
<glyph unicode="2" horiz-adv-x="1050" d="M-45 0l63 303q170 111 292 194t201 153.5t116 134t37 130.5q0 66 -39 101t-101 35q-76 0 -136 -19.5t-130 -54.5l-98 254q39 18 82 38.5t94 37t112.5 26.5t137.5 10q113 0 197.5 -28.5t143 -78.5t87 -121t28.5 -154q0 -205 -158.5 -369t-471.5 -311h510l-60 -281h-907z " />
<glyph unicode="3" horiz-adv-x="1036" d="M-29 -45l49 276q66 -27 146 -46t151 -19q160 0 207 70q20 29 31.5 66.5t11.5 80.5q0 143 -172 143h-133l57 265h132q61 0 97 8t58 32q18 18 28.5 54.5t10.5 64.5q0 111 -151 111q-74 0 -130.5 -17.5t-117.5 -42.5l-64 248q80 37 178.5 65.5t239.5 28.5q88 0 163 -22.5 t128 -64.5t83 -101t30 -135q0 -141 -59.5 -231.5t-196.5 -137.5q92 -33 144 -113.5t52 -185.5q0 -86 -24.5 -164.5t-71.5 -138.5q-70 -92 -187.5 -139t-287.5 -47q-76 0 -135.5 8t-106.5 20.5t-86 29t-74 34.5z" />
<glyph unicode="4" horiz-adv-x="1247" d="M8 172l66 305l493 840h340l-501 -858h292l99 459l352 53l-109 -512h125l-61 -287h-125l-59 -283h-340l59 283h-631z" />
<glyph unicode="5" horiz-adv-x="1091" d="M-10 -49l49 282q66 -27 147.5 -46t155.5 -19q135 0 195 47q39 29 50 72t11 80q2 78 -49 126t-162 48q-84 0 -138 -12.5t-114 -32.5l232 821h727l-62 -289h-444l-72 -233q16 4 36.5 6t49.5 2q78 0 147.5 -25.5t122 -76t83 -124t30.5 -171.5q0 -100 -27.5 -192.5 t-85.5 -162.5q-80 -98 -205.5 -143t-295.5 -45q-129 0 -219.5 26.5t-161.5 61.5z" />
<glyph unicode="6" horiz-adv-x="1198" d="M84 500q0 113 23.5 223.5t70.5 211.5t121 189t174 156q117 78 271.5 134t361.5 81v-250q-141 -35 -238.5 -73.5t-183.5 -100.5q-53 -39 -98 -95t-78 -130q47 33 105.5 53.5t148.5 20.5q78 0 144.5 -30t115.5 -85t76.5 -133t27.5 -176q0 -109 -37.5 -204t-108.5 -166 t-174.5 -112t-232.5 -41q-123 0 -215 38t-153.5 106.5t-91 166t-29.5 216.5zM430 457q0 -109 36 -166.5t114 -57.5q37 0 69.5 13.5t58 43t41 77t15.5 114.5q0 92 -41 142.5t-113 50.5q-43 0 -86 -15.5t-82 -42.5q-12 -78 -12 -159z" />
<glyph unicode="7" horiz-adv-x="1021" d="M92 -96q51 209 127 383t164 313t179 243.5t171 172.5h-563l63 299h891l-65 -318q-53 -43 -142.5 -145t-182.5 -251.5t-178 -339t-128 -408.5z" />
<glyph unicode="8" horiz-adv-x="1187" d="M37 367q0 139 74.5 233t236.5 141q-72 51 -103.5 122t-31.5 157q0 92 36 172t101.5 137t157.5 90t207 33q113 0 204 -27.5t154.5 -78t97 -120t33.5 -153.5q0 -117 -72.5 -199.5t-207.5 -128.5q92 -59 136 -141t44 -184q0 -98 -39 -180t-110.5 -141.5t-172 -92.5 t-223.5 -33q-135 0 -233.5 32t-163 85t-95 125t-30.5 152zM381 385q0 -84 45 -123t123 -39q92 0 136 52.5t44 117.5q0 53 -29.5 93t-107.5 87l-55 33q-76 -35 -116 -90t-40 -131zM571 1079q-6 -41 6.5 -88t75.5 -84l66 -39q76 33 108.5 78t32.5 123q0 59 -39 97t-104 38 q-55 0 -94.5 -29.5t-51.5 -95.5z" />
<glyph unicode="9" horiz-adv-x="1198" d="M104 72q147 35 258 76.5t197 107.5q96 72 162 193q-47 -29 -102.5 -46.5t-137.5 -17.5q-78 0 -144.5 30.5t-115.5 87t-76.5 135.5t-27.5 177q0 109 38 205t108.5 168t174 113.5t232.5 41.5q123 0 215 -37.5t153.5 -106.5t91 -166t29.5 -216q0 -113 -21.5 -219 t-68.5 -204.5t-121 -185.5t-178 -161q-117 -82 -285 -141.5t-381 -83.5v250zM479 829q0 -92 41 -145t113 -53q41 0 84 14t82 39q6 41 10 85t4 91q0 109 -36 166t-113 57q-37 0 -70 -14t-58.5 -45t-41 -79t-15.5 -116z" />
<glyph unicode=":" horiz-adv-x="628" d="M43 174q0 39 15.5 74t42 61.5t61.5 42t76 15.5q39 0 74.5 -15.5t63 -42t43 -61.5t15.5 -74q0 -41 -15.5 -77t-43 -62.5t-63 -42t-74.5 -15.5q-41 0 -76 15.5t-61.5 42t-42 62.5t-15.5 77zM160 727q0 39 15 74t42 61.5t61.5 42t75.5 15.5q39 0 75 -15.5t63.5 -42t43 -61.5 t15.5 -74q0 -41 -15.5 -77t-43 -62.5t-63.5 -42t-75 -15.5q-41 0 -75.5 15.5t-61.5 42t-42 62.5t-15 77z" />
<glyph unicode=";" horiz-adv-x="653" d="M-23 -154q70 20 122.5 63.5t68.5 94.5q-53 18 -89 64.5t-36 107.5q0 39 15.5 74t42 60.5t61.5 41t76 15.5q80 0 138 -56.5t58 -165.5q0 -98 -37 -174.5t-98 -132t-143 -90.5t-172 -49zM160 727q0 39 15 74t42 61.5t61.5 42t75.5 15.5q39 0 75 -15.5t63.5 -42t43 -61.5 t15.5 -74q0 -41 -15.5 -77t-43 -62.5t-63.5 -42t-75 -15.5q-41 0 -75.5 15.5t-61.5 42t-42 62.5t-15 77z" />
<glyph unicode="&#x3c;" horiz-adv-x="962" d="M111 567l41 191l655 399l143 -248l-454 -284l329 -314l-207 -231z" />
<glyph unicode="=" horiz-adv-x="1150" d="M43 223l68 316h933l-67 -316h-934zM147 715l68 315h934l-68 -315h-934z" />
<glyph unicode="&#x3e;" horiz-adv-x="962" d="M51 328l455 284l-330 314l207 231l508 -487l-41 -191l-655 -399z" />
<glyph unicode="?" horiz-adv-x="913" d="M139 160q0 76 52.5 129t127.5 53q76 0 128.5 -53t52.5 -129t-52.5 -128t-128.5 -52t-128 52t-52 128zM209 1370q70 35 157 59.5t185 24.5q182 0 292.5 -83t110.5 -259q0 -84 -18 -147.5t-54 -113.5t-89.5 -89t-120.5 -76q-66 -35 -100.5 -74t-49.5 -118l-14 -74h-275 l33 155q14 63 31.5 110.5t40 81.5t50.5 58.5t65 44.5q49 29 78.5 53.5t47 48t22.5 47t5 50.5q0 49 -28.5 80t-94.5 31q-59 0 -118.5 -20.5t-88.5 -37.5z" />
<glyph unicode="@" horiz-adv-x="1787" d="M55 408q0 205 69 377.5t189.5 298.5t287.5 196t364 70q172 0 312 -48.5t238.5 -142.5t152.5 -233.5t54 -319.5q0 -182 -45 -303t-115.5 -193.5t-157.5 -103.5t-169 -31q-68 0 -116 13.5t-80.5 38t-54 59.5t-36.5 78q-51 -66 -118.5 -113t-153.5 -47q-102 0 -160.5 62.5 t-58.5 209.5q0 100 30 246q27 123 65 202t86 124t103.5 62.5t116.5 17.5q39 0 66.5 -8.5t48 -20.5t36 -26.5t27.5 -26.5l15 63h288l-143 -633q-12 -53 5.5 -75.5t58.5 -22.5q33 0 70.5 18.5t69.5 66.5t53.5 131t21.5 212q0 141 -31 241.5t-95.5 164t-165 93.5t-239.5 30 q-141 0 -257 -49.5t-196.5 -143.5t-126 -228t-45.5 -306q0 -178 40 -292t113 -179.5t172 -91t216 -25.5q78 0 150.5 13t148.5 42l68 -201q-86 -37 -175.5 -56t-193.5 -19q-170 0 -317.5 47t-255 146t-169 252t-61.5 364zM758 299q0 -45 14 -62.5t39 -17.5q33 0 55.5 22.5 t44.5 45.5l86 397q-10 10 -25.5 21.5t-45.5 11.5q-29 0 -47.5 -8.5t-33 -34t-27.5 -71.5t-32 -120q-16 -63 -22 -108t-6 -76z" />
<glyph unicode="A" horiz-adv-x="1146" d="M-90 0l682 1427h354l66 -1427h-346l-2 238h-297l-99 -238h-358zM473 494h189v258q0 43 2 91t5 92t6 80t7 56h-4q-6 -20 -14.5 -55t-19.5 -77t-25.5 -88t-30.5 -85z" />
<glyph unicode="B" horiz-adv-x="1146" d="M8 0l303 1427h490q70 0 131 -23.5t106 -68.5t71 -107.5t26 -137.5q0 -143 -52.5 -228.5t-185.5 -128.5q76 -31 125 -99.5t49 -174.5q0 -109 -39 -204t-104 -151q-125 -104 -365 -104h-555zM408 283h133q41 0 70.5 9t54.5 36q20 20 32.5 62t12.5 87q0 53 -29 88t-100 35 h-107zM532 866h113q35 0 64.5 7.5t48.5 29.5q20 23 32.5 56.5t12.5 74.5q0 51 -25.5 81t-77.5 30h-108z" />
<glyph unicode="C" horiz-adv-x="1073" d="M90 489q0 106 18.5 224t51.5 228t78 202t96 147q88 96 189.5 130t230.5 34q147 0 241.5 -41t159.5 -100l-164 -256q-39 41 -93 72.5t-128 31.5q-63 0 -106 -24.5t-76 -89.5q-23 -45 -44.5 -120t-39 -158t-28.5 -163t-11 -137q0 -59 11 -99t31.5 -62.5t50.5 -32t67 -9.5 q72 0 139 30t121 64l73 -282q-61 -39 -147 -72t-213 -33q-250 0 -379 127t-129 389z" />
<glyph unicode="D" horiz-adv-x="1228" d="M8 0l303 1427h451q104 0 188 -28.5t143.5 -89t92.5 -152.5t33 -217q0 -100 -14.5 -211t-44.5 -217t-74 -199.5t-103 -156.5q-72 -78 -176.5 -117t-253.5 -39h-545zM422 297h127q29 0 56.5 4t52 17.5t47 38t43.5 65.5q20 43 39.5 109.5t35 140t24.5 145.5t9 123 q0 57 -12.5 95t-34 60.5t-49 31t-60.5 8.5h-100z" />
<glyph unicode="E" horiz-adv-x="970" d="M8 0l303 1427h762l-61 -292h-412l-53 -252h323l-61 -283h-324l-63 -303h448l-63 -297h-799z" />
<glyph unicode="F" horiz-adv-x="919" d="M8 0l303 1427h750l-62 -292h-401l-53 -252h309l-61 -283h-308l-127 -600h-350z" />
<glyph unicode="G" horiz-adv-x="1212" d="M94 463q0 100 18.5 218t50.5 230.5t76 207.5t97 155q90 100 205.5 140t257.5 40q147 0 250.5 -40t175.5 -109l-174 -252q-49 47 -111.5 77.5t-151.5 30.5q-72 0 -119.5 -25.5t-82.5 -93.5q-23 -43 -45.5 -119.5t-41 -161.5t-30.5 -168t-12 -138q0 -111 35.5 -154 t113.5 -43q43 0 71 11.5t46 23.5l51 235h-139l59 283h484l-172 -811h-222l-24 104q-59 -63 -129 -96t-142 -33q-193 0 -294 123t-101 365z" />
<glyph unicode="H" horiz-adv-x="1204" d="M8 0l303 1427h351l-111 -526h262l111 526h350l-303 -1427h-350l129 604h-263l-129 -604h-350z" />
<glyph unicode="I" horiz-adv-x="786" d="M-33 0l39 188l146 39l206 979l-127 33l39 188h627l-39 -188l-145 -39l-207 -981l127 -31l-39 -188h-627z" />
<glyph unicode="J" horiz-adv-x="620" d="M-174 -158q51 25 89 48.5t64.5 57.5t46 83t35.5 127l271 1269h350l-295 -1384q-41 -188 -155.5 -290.5t-331.5 -149.5z" />
<glyph unicode="K" horiz-adv-x="1161" d="M8 0l303 1427h351l-134 -624l412 624h371l-471 -677l209 -750h-355l-180 733l-156 -733h-350z" />
<glyph unicode="L" horiz-adv-x="948" d="M8 0l303 1427h344l-241 -1138h407l-61 -289h-752z" />
<glyph unicode="M" horiz-adv-x="1486" d="M8 0l303 1427h434l7 -544v-42q0 -69 -4 -137q-6 -90 -17 -174h2q20 82 46 169t57 163l227 565h493l-303 -1427h-331l108 508q18 90 40 181t41 174t37.5 152.5t31.5 117.5h-2q-18 -55 -41 -122t-48.5 -138.5t-55 -145.5t-60.5 -141l-162 -361h-305l-10 344q-2 66 -2 142.5 t3 152.5t6 145.5t7 123.5h-2q-6 -49 -15.5 -125t-21.5 -163t-26.5 -177t-30.5 -166l-107 -502h-299z" />
<glyph unicode="N" horiz-adv-x="1214" d="M8 0l303 1427h326l125 -589q16 -72 27.5 -161t17.5 -161h2q2 33 6 77t9 93t12.5 100.5t17.5 98.5l115 542h315l-303 -1427h-346l-109 594q-16 80 -27.5 165t-19.5 152h-2q0 -23 -2 -63.5t-7 -95t-14.5 -120t-23.5 -132.5l-106 -500h-316z" />
<glyph unicode="O" horiz-adv-x="1284" d="M90 492q0 104 19.5 217.5t53.5 221t80 200t101 151.5q84 90 190.5 131t247.5 41q238 0 366 -123t128 -375q0 -102 -18.5 -217.5t-52.5 -226.5t-79 -208t-100 -159q-80 -90 -188.5 -131t-249.5 -41q-238 0 -368 131.5t-130 387.5zM453 440q0 -100 37.5 -142t111.5 -42 q61 0 103.5 24.5t74.5 90.5q23 47 46.5 127t43 170t31.5 177t12 146q0 98 -36.5 140.5t-110.5 42.5q-63 0 -104 -25t-74 -90q-23 -43 -46.5 -123t-43 -170t-32.5 -178t-13 -148z" />
<glyph unicode="P" horiz-adv-x="1132" d="M8 0l303 1427h389q221 0 340 -89t121 -275q0 -55 -7 -112.5t-22.5 -112t-38 -102.5t-53.5 -83q-59 -68 -158.5 -104.5t-265.5 -36.5h-149l-109 -512h-350zM526 791h92q53 0 90 7t62 38q23 27 35 74.5t12 107.5q0 66 -30.5 93.5t-86.5 27.5h-100z" />
<glyph unicode="Q" horiz-adv-x="1300" d="M90 492q0 104 19.5 217.5t53.5 221t80 200t101 151.5q84 90 190.5 131t247.5 41q238 0 366 -123t128 -375q0 -96 -12.5 -201.5t-39 -207t-68.5 -191.5t-101 -153q-37 -39 -85 -68t-102 -43l299 -100l-116 -277l-598 252q-78 37 -143.5 75t-115 95.5t-77 142.5t-27.5 212z M453 440q0 -100 37.5 -142t111.5 -42q61 0 103.5 24.5t74.5 90.5q23 47 46.5 127t43 170t31.5 177t12 146q0 98 -36.5 140.5t-110.5 42.5q-63 0 -104 -25t-74 -90q-23 -43 -46.5 -123t-43 -170t-32.5 -178t-13 -148z" />
<glyph unicode="R" horiz-adv-x="1181" d="M8 0l303 1427h402q135 0 224 -31.5t140 -86t71.5 -125t20.5 -146.5q0 -92 -19.5 -157.5t-56 -111.5t-91 -73.5t-125.5 -44.5q57 -23 83.5 -89t43.5 -183l49 -379h-348l-41 410q-4 45 -11.5 75.5t-22 49t-38 26.5t-60.5 8h-53l-121 -569h-350zM535 829h124q82 0 123 41 q23 23 34 65t11 77q0 118 -129 118h-2h-98z" />
<glyph unicode="S" d="M-18 154l120 282q33 -31 71 -59.5t81 -51t89 -36t95 -13.5q86 0 126 45.5t40 108.5q0 33 -18.5 58.5t-48 47t-68.5 42t-80 45.5q-43 25 -81 56.5t-66.5 74.5t-45 99t-16.5 130q0 123 35 211t97.5 146.5t147.5 86t187 27.5q143 0 238.5 -40t169.5 -93l-121 -268 q-59 45 -128 74.5t-140 29.5q-74 0 -107 -33.5t-33 -101.5q0 -31 14.5 -53.5t39 -42t57.5 -38t70 -36.5q49 -27 96 -58.5t84 -76.5t59.5 -106.5t22.5 -143.5q0 -98 -27 -187.5t-85 -157t-149.5 -108.5t-218.5 -41q-104 0 -184 16.5t-141.5 42t-105.5 57.5t-76 65z" />
<glyph unicode="T" d="M186 1133l62 294h923l-61 -294h-289l-241 -1133h-344l241 1133h-291z" />
<glyph unicode="U" horiz-adv-x="1204" d="M80 324q0 43 6 91t16 101l193 911h350l-207 -978q-10 -47 -10 -76q0 -49 23.5 -77t83.5 -28q51 0 87.5 20.5t67.5 45.5l234 1093h350l-303 -1427h-228l-26 111q-27 -29 -55.5 -54.5t-63.5 -44t-80 -29t-102 -10.5q-162 0 -249 88.5t-87 262.5z" />
<glyph unicode="V" horiz-adv-x="1187" d="M211 1427h354l37 -653q4 -68 4 -131t-8 -149h2q29 88 49.5 148t48.5 124l306 661h354l-707 -1427h-307z" />
<glyph unicode="W" horiz-adv-x="1591" d="M215 0l18 1427h345l-9 -380q-2 -82 -9 -170.5t-16 -171t-20.5 -156.5t-19.5 -125h2q23 88 67.5 238.5t116.5 345.5l158 419h268l4 -415q0 -70 -3 -147t-8 -153.5t-12 -149.5t-14 -136h2q12 53 28.5 125t37 153.5t45.5 170t53 174.5l123 378h365l-545 -1427h-346l6 551 q0 51 5 106.5t10 107.5t11.5 98t10.5 81h-2q-8 -35 -18.5 -81t-25 -98t-30.5 -107.5t-37 -106.5l-207 -551h-354z" />
<glyph unicode="X" horiz-adv-x="1167" d="M-102 0l542 766l-198 661h385l69 -401l217 401h400l-486 -690l217 -737h-380l-91 477l-272 -477h-403z" />
<glyph unicode="Y" horiz-adv-x="1128" d="M209 1427h358l54 -262q16 -78 20 -150.5t4 -146.5q23 74 50.5 136.5t62.5 123.5l160 299h382l-548 -827l-127 -600h-353l134 629z" />
<glyph unicode="Z" horiz-adv-x="1042" d="M-41 0l51 242l652 893h-426l61 292h842l-52 -247l-647 -883h478l-64 -297h-895z" />
<glyph unicode="[" horiz-adv-x="649" d="M-74 -319l387 1818h478l-54 -244h-168l-282 -1331h168l-52 -243h-477z" />
<glyph unicode="\" horiz-adv-x="825" d="M225 1575h242l172 -1899h-242z" />
<glyph unicode="]" horiz-adv-x="649" d="M-117 -319l54 243h167l283 1331h-168l51 244h478l-388 -1818h-477z" />
<glyph unicode="^" horiz-adv-x="1153" d="M170 823l457 627h288l191 -627h-336l-68 260l-178 -260h-354z" />
<glyph unicode="_" horiz-adv-x="786" d="M-176 -338l51 246h770l-51 -246h-770z" />
<glyph unicode="`" horiz-adv-x="1028" d="M369 1360l178 250l371 -303l-125 -168z" />
<glyph unicode="a" horiz-adv-x="1030" d="M29 295q0 88 13 186.5t40 192.5t67.5 175t96.5 136q53 53 117.5 75.5t136.5 22.5q78 0 130 -31.5t93 -88.5l49 94h275l-168 -787q-12 -53 -14.5 -122.5t-2.5 -147.5h-291v125q-63 -66 -141 -109t-156 -43q-117 0 -181 78t-64 244zM375 324q0 -51 12 -71t49 -20 q31 0 62.5 16.5t50.5 33.5l106 495q-12 14 -35.5 28.5t-58.5 14.5q-39 0 -58.5 -15t-39.5 -63q-14 -35 -29.5 -90t-29 -116.5t-21.5 -119t-8 -93.5z" />
<glyph unicode="b" horiz-adv-x="1036" d="M-16 0l319 1505h332l-109 -514q53 41 111.5 66.5t118.5 25.5q117 0 183.5 -77.5t66.5 -243.5q0 -88 -13.5 -187.5t-40 -194.5t-67.5 -177t-97 -137q-53 -53 -116 -73t-135 -20q-78 0 -142.5 37t-95.5 90l-53 -100h-262zM371 264q12 -14 35.5 -26.5t58.5 -12.5 q39 0 64.5 17.5t45.5 64.5q14 33 30 89.5t29 117.5t21.5 118.5t8.5 94.5v10q0 43 -16 61q-18 20 -56 19q-31 0 -62.5 -16.5t-50.5 -32.5z" />
<glyph unicode="c" horiz-adv-x="845" d="M41 389q0 74 11 153t32.5 151.5t53.5 136t71 110.5q121 142 336 142q18 0 37 -1q106 -4 167.5 -27.5t116.5 -62.5l-129 -231q-39 27 -73.5 42t-79.5 17h-11q-32 0 -58 -10q-30 -12 -52 -57q-14 -29 -27.5 -76t-25 -101.5t-17.5 -109.5t-6 -100q0 -72 23.5 -103t76.5 -31 t99.5 21.5t87.5 50.5l63 -231q-57 -41 -129 -69t-164 -28q-197 0 -300 104.5t-103 309.5z" />
<glyph unicode="d" d="M29 295q0 88 13 186.5t41 192.5t70 175t97 136q53 53 120.5 75.5t139.5 22.5q78 0 126 -31.5t75 -60.5l108 514h332l-262 -1235q-11 -59 -17 -134q-4 -55 -5 -102q0 -17 1 -34h-293v121q-63 -66 -137.5 -107t-152.5 -41q-117 0 -186.5 78t-69.5 244zM375 324 q0 -51 17 -71t54 -20q31 0 63 16.5t50 33.5l107 495q-12 14 -36 28.5t-59 14.5q-39 0 -63.5 -15t-44.5 -63q-14 -35 -29.5 -90t-29 -116.5t-21.5 -119t-8 -93.5z" />
<glyph unicode="e" horiz-adv-x="1009" d="M47 403q0 70 13.5 145t38 144.5t58 131t74.5 104.5q74 78 166 116.5t215 38.5q174 0 270.5 -86t96.5 -231q0 -104 -41 -175t-118 -115t-187.5 -63.5t-249.5 -19.5v-12q0 -86 37 -119t100 -33q98 0 165 27t120 61l63 -237q-55 -41 -155 -74t-217 -33q-225 0 -337 114 t-112 316zM412 610q51 0 97 6.5t82 23.5t57.5 46t21.5 74q0 47 -21.5 67.5t-56.5 20.5t-64.5 -14.5t-54.5 -55.5q-16 -29 -32.5 -72.5t-28.5 -95.5z" />
<glyph unicode="f" horiz-adv-x="655" d="M-94 -98q27 23 50.5 43t42.5 45.5t34.5 59.5t25.5 83l136 678h-105l53 246h101l30 149q20 102 58.5 166t87.5 97.5t107.5 45t117.5 11.5q82 0 133 -21.5t80 -44.5l-70 -213q-16 10 -40.5 19.5t-63.5 9.5q-35 0 -54.5 -16.5t-29.5 -63.5l-29 -139h168l-53 -246h-164 l-143 -713q-16 -80 -42 -137t-66 -101t-99 -81t-143 -74z" />
<glyph unicode="g" d="M-37 -311l70 237q76 -35 152.5 -52t160.5 -17q66 0 101.5 27.5t50.5 92.5l24 115q-14 -12 -35.5 -28.5t-51 -30t-64.5 -23.5t-74 -10q-117 0 -189.5 75t-72.5 240q0 88 15.5 185.5t43 188.5t67.5 169t89 127q53 53 120.5 75.5t139.5 22.5q78 0 130 -31.5t93 -88.5l49 94 h275l-240 -1120q-39 -178 -140.5 -261.5t-285.5 -83.5q-121 0 -229.5 26t-198.5 71zM381 344q0 -51 17.5 -70.5t54.5 -19.5q31 0 62.5 16.5t49.5 32.5l101 475q-12 14 -36 28.5t-59 14.5q-39 0 -63.5 -15t-44.5 -63q-14 -35 -28.5 -87t-27 -109.5t-19.5 -111.5t-7 -91z" />
<glyph unicode="h" d="M-16 0l319 1505h332l-111 -522q45 35 110.5 67.5t151.5 32.5q104 0 161 -63.5t57 -179.5q0 -59 -13 -115l-153 -725h-332l149 707q2 8 3 17t1 21q0 37 -17 51.5t-44 14.5q-31 0 -57.5 -10t-63.5 -39l-162 -762h-331z" />
<glyph unicode="i" horiz-adv-x="563" d="M16 0l172 811l-88 37l45 209h428l-225 -1057h-332zM274 1335q0 39 14.5 75t40 61.5t59.5 41t73 15.5t73.5 -15.5t60.5 -41t40 -60.5t14 -74q0 -41 -14 -75.5t-40 -60t-59.5 -41t-72.5 -15.5t-74 15.5t-60.5 41t-40 60t-14.5 73.5z" />
<glyph unicode="j" horiz-adv-x="563" d="M-156 -180q39 14 69 28.5t49.5 35t32.5 51t23 75.5l170 801l-88 37l45 209h428l-227 -1065q-23 -104 -55.5 -174t-84.5 -115t-127 -72.5t-181 -48.5zM274 1335q0 39 14.5 75t40 61.5t59.5 41t73 15.5t73.5 -15.5t60.5 -41t40 -60.5t14 -74q0 -41 -14 -75.5t-40 -60 t-59.5 -41t-72.5 -15.5t-74 15.5t-60.5 41t-40 60t-14.5 73.5z" />
<glyph unicode="k" horiz-adv-x="1024" d="M-16 0l319 1505h332l-191 -895l291 447h357l-336 -467l149 -590h-327l-140 575l-123 -575h-331z" />
<glyph unicode="l" horiz-adv-x="587" d="M45 231q0 72 18 158l238 1116h332l-254 -1204q-4 -10 -4 -19.5v-17.5q0 -33 15.5 -42t35.5 -9h14.5t14.5 2l16 4l-12 -205q-23 -12 -69 -25.5t-103 -13.5q-129 0 -185.5 69t-56.5 187z" />
<glyph unicode="m" horiz-adv-x="1505" d="M-16 0l172 813q24 114 24 234v10h285v-125q57 57 135 104t172 47q76 0 119 -41t59 -114q68 68 146 111.5t170 43.5q96 0 149 -62.5t55 -172.5q0 -51 -14 -123l-153 -725h-332l149 707q6 27 6 47q0 33 -13 44t-36 11q-29 0 -49 -8t-55 -31l-164 -770h-332l150 707 q6 27 6 47q0 33 -13.5 44t-35.5 11q-29 0 -51.5 -9t-53.5 -30l-164 -770h-331z" />
<glyph unicode="n" d="M-16 0l172 813q24 114 24 234v10h285v-125q68 66 147.5 108.5t173.5 42.5q104 0 161 -63.5t57 -179.5q0 -59 -13 -115l-153 -725h-332l149 707q2 8 3 17t1 21q0 37 -17 51.5t-44 14.5q-31 0 -57.5 -10t-63.5 -39l-162 -762h-331z" />
<glyph unicode="o" horiz-adv-x="1042" d="M53 391q0 74 13.5 155t36 154.5t54 136t68.5 103.5q66 72 151 107.5t204 35.5q188 0 298.5 -100t112.5 -307q0 -72 -13 -152t-35.5 -154.5t-53.5 -140t-66 -106.5q-66 -78 -151.5 -114t-202.5 -36q-199 0 -307.5 106.5t-108.5 311.5zM385 332q0 -63 21.5 -91t68.5 -28 q68 0 96 66q14 33 29.5 92t29 124.5t21.5 130t8 109.5q0 59 -21.5 83t-66.5 24q-35 0 -56 -15.5t-38 -48.5q-12 -25 -28.5 -80t-29.5 -121.5t-23.5 -132t-10.5 -112.5z" />
<glyph unicode="p" horiz-adv-x="1036" d="M-98 -389l254 1202q24 114 24 234v10h285v-121q63 66 138 106.5t153 40.5q117 0 183.5 -77.5t66.5 -243.5q0 -88 -13.5 -187.5t-40 -194.5t-67.5 -177t-97 -137q-53 -53 -116.5 -73t-134.5 -20q-78 0 -130.5 29t-78.5 55l-95 -446h-331zM373 270q14 -16 35.5 -30.5 t56.5 -14.5q39 0 64.5 17.5t45.5 64.5q14 33 30 89.5t29 117.5t21.5 118.5t8.5 94.5v10q0 43 -16 61q-19 19 -56 19q-31 0 -62.5 -16.5t-50.5 -32.5z" />
<glyph unicode="q" d="M29 295q0 88 13 186.5t41 192.5t70 175t97 136q53 53 120.5 75.5t139.5 22.5q78 0 130 -31.5t93 -88.5l49 94h275l-307 -1446h-332l96 455q-14 -12 -36.5 -29t-52.5 -30t-65.5 -23.5t-74.5 -10.5q-117 0 -186.5 78t-69.5 244zM375 324q0 -51 17 -71t54 -20q31 0 63 16.5 t50 33.5l107 495q-12 14 -36 28.5t-59 14.5q-39 0 -63.5 -15t-44.5 -63q-14 -35 -29.5 -90t-29 -116.5t-21.5 -119t-8 -93.5z" />
<glyph unicode="r" horiz-adv-x="737" d="M-16 0l172 813q24 114 24 234v10h279v-160q70 82 144.5 130t182.5 48l-28 -325q-78 -2 -147.5 -10.5t-147.5 -41.5l-148 -698h-331z" />
<glyph unicode="s" horiz-adv-x="854" d="M-41 82l98 252q37 -31 106.5 -60.5t147.5 -29.5q66 0 93.5 17.5t27.5 57.5q0 37 -26.5 54.5t-86.5 46.5q-35 16 -72.5 37.5t-68.5 55.5t-51.5 84t-20.5 128q0 176 108 267t280 91q125 0 202.5 -27.5t139.5 -60.5l-95 -245q-41 25 -98 48t-125 23q-39 0 -62.5 -14 t-23.5 -49q0 -39 34 -58.5t101 -50.5q37 -16 74 -39.5t66.5 -59.5t47 -84t17.5 -114q0 -197 -106.5 -288t-292.5 -91q-90 0 -156.5 10.5t-115 26t-82 34.5t-60.5 38z" />
<glyph unicode="t" horiz-adv-x="702" d="M74 215q0 57 14 121l100 475h-100l53 246h101l53 252l342 53l-66 -305h185l-54 -246h-182l-100 -473q-8 -40 -8 -65q0 -17 4 -27q10 -24 51 -25q29 0 55.5 8.5t36.5 12.5l10 -215q-31 -16 -91 -35t-132 -19q-272 0 -272 242z" />
<glyph unicode="u" d="M37 225q0 47 12 107l154 725h332l-150 -707q-2 -10 -3 -17t-1 -22q0 -41 16.5 -55t42.5 -14q31 0 59.5 10t63.5 35l162 770h332l-168 -787q-10 -51 -15.5 -121.5t-5.5 -148.5h-290v121q-61 -63 -139.5 -105.5t-172.5 -42.5q-109 0 -169 66.5t-60 185.5z" />
<glyph unicode="v" horiz-adv-x="989" d="M121 1057h336l24 -336q6 -78 6 -178.5t-6 -186.5h4q23 82 50.5 176.5t56.5 161.5l156 363h346l-549 -1057h-287z" />
<glyph unicode="w" horiz-adv-x="1419" d="M125 1057h326l-11 -307q-4 -88 -13 -179.5t-21 -183.5h2q25 84 51 157.5t67 172.5l146 340h286l9 -357q1 -28 1 -58q0 -44 -2 -92q-3 -80 -14 -157h2q23 88 46.5 174t58.5 178l121 312h340l-510 -1057h-289l4 379q2 74 6 156.5t12 134.5h-2q-18 -57 -39.5 -117.5 t-56.5 -144.5l-174 -408h-297z" />
<glyph unicode="x" d="M-92 0l426 580l-166 477h362l23 -123q10 -53 16 -107.5t11 -95.5h2q2 10 10 32.5t19.5 50.5t24.5 57.5t26 52.5l75 133h379l-387 -508l180 -549h-362l-37 176q-12 59 -18.5 108.5t-6.5 77.5h-4q-12 -31 -32.5 -75.5t-55.5 -104.5l-108 -182h-377z" />
<glyph unicode="y" horiz-adv-x="997" d="M-47 -154q74 10 127 22.5t92 31t67.5 43t53.5 57.5h-66l-106 1057h350l12 -482q1 -48 1 -94v-46q-1 -68 -7 -116h2q16 49 36 108.5t50 133.5l201 496h336l-508 -1059q-57 -115 -112.5 -188.5t-124 -119.5t-158.5 -69.5t-217 -36.5z" />
<glyph unicode="z" horiz-adv-x="851" d="M-57 0l43 205l481 598h-328l56 254h714l-49 -226l-463 -573h342l-55 -258h-741z" />
<glyph unicode="{" horiz-adv-x="700" d="M33 455l59 274q41 0 68.5 4t46 15.5t29 32t16.5 50.5l80 371q35 168 128 232.5t232 64.5h152l-53 -242h-46q-29 0 -47 -4t-30.5 -14t-20.5 -29.5t-14 -52.5l-84 -395q-18 -88 -57 -126t-121 -54v-4q53 -12 79.5 -42t26.5 -83q0 -31 -10 -82l-72 -328q-4 -16 -6 -29.5 t-2 -23.5q0 -35 18.5 -51.5t63.5 -16.5h39l-51 -241h-111q-59 0 -109.5 12t-88 39.5t-59 71.5t-21.5 108q0 23 2 46.5t8 49.5l67 324q6 27 7 49q0 43 -28 58.5t-91 15.5z" />
<glyph unicode="|" horiz-adv-x="497" d="M172 -324v1899h190v-1899h-190z" />
<glyph unicode="}" horiz-adv-x="700" d="M-119 -319l53 241h46q29 0 47 3t30.5 14.5t20.5 31t14 52.5l86 399q18 88 57 126t121 54v4q-53 12 -79.5 42t-26.5 83q0 18 3 37.5t7 44.5l70 324q4 16 6 30.5t2 26.5q0 63 -82 63h-39l51 242h111q57 0 108.5 -12t89 -40t59 -73t21.5 -108q0 -25 -3 -48.5t-7 -46.5 l-65 -319q-6 -29 -7 -49q0 -43 28 -58.5t91 -15.5l-59 -274q-41 0 -68.5 -4.5t-46 -15.5t-29 -31.5t-16.5 -51.5l-82 -375q-35 -168 -128 -232t-232 -64h-152z" />
<glyph unicode="~" horiz-adv-x="1087" d="M86 567q70 141 158 220t188 79q57 0 99 -13t76 -29.5t62.5 -30t61.5 -13.5q35 0 62.5 23.5t56.5 68.5l209 -114q-72 -139 -159 -218t-187 -79q-59 0 -100.5 13t-75 29.5t-62.5 30t-61 13.5q-35 0 -62.5 -24.5t-58.5 -69.5z" />
<glyph unicode="&#xa1;" horiz-adv-x="614" d="M-76 -371l297 1008h250l-162 -1008h-385zM199 897q0 76 52 128t128 52t128 -52t52 -128t-52 -129t-128 -53t-128 53t-52 129z" />
<glyph unicode="&#xa2;" horiz-adv-x="858" d="M41 389q0 74 11 153t32.5 151.5t53.5 136t71 110.5q96 113 266 137l51 236h279l-55 -256q37 -12 66.5 -28.5t60.5 -37.5l-129 -231q-39 27 -73 42t-79 17q-39 2 -75 -10t-58 -57q-14 -29 -27.5 -76t-25 -101.5t-17.5 -109.5t-6 -100q0 -72 26.5 -103t80.5 -31 q53 0 101 21.5t89 50.5l64 -231q-47 -33 -102.5 -56.5t-123.5 -33.5l-53 -250h-279l60 280q-102 43 -155.5 138.5t-53.5 238.5z" />
<glyph unicode="&#xa3;" horiz-adv-x="1054" d="M-37 0l64 295q88 37 146 100.5t77 134.5h-176l51 238h113q-6 33 -10.5 66.5t-4.5 70.5q0 205 129 321.5t365 116.5q145 0 239.5 -37.5t159.5 -91.5l-123 -247q-53 33 -113.5 54t-131.5 21q-78 0 -123 -39.5t-45 -132.5q0 -25 1 -50t3 -52h258l-51 -238h-211 q-37 -160 -207 -258h555l-58 -272h-907z" />
<glyph unicode="&#xa4;" horiz-adv-x="1259" d="M-8 283l207 174q-4 20 -4 41v45q0 66 12 139q18 96 49 170q-10 10 -18 22q-8 10 -18.5 22.5t-20.5 27.5l-58 73l265 234q29 -37 51 -66q10 -12 18 -23.5t17 -21.5l16 -20q57 23 117.5 32t122.5 7q55 -2 106 -13.5t94 -33.5l166 139l199 -234l-197 -168q2 -16 3 -32.5 t1 -34.5q0 -29 -4 -73t-12 -89q-18 -98 -55 -176l114 -145l-268 -234l-107 135q-102 -37 -221 -33q-113 4 -198 50l-181 -152zM520 522q0 -63 20.5 -98t71.5 -37q72 -2 110 66.5t60 191.5q6 37 9.5 64.5t3.5 62.5q0 61 -21.5 93t-71.5 34q-72 4 -109.5 -61.5t-60.5 -194.5 q-12 -72 -12 -121z" />
<glyph unicode="&#xa5;" horiz-adv-x="1179" d="M20 264l46 209h342l12 57l-19 64h-311l45 209h211l-137 514h352l62 -281q16 -72 21 -137t1 -137q27 72 51.5 129t61.5 117l182 309h369l-363 -514h213l-45 -209h-313l-39 -55l-14 -66h342l-46 -209h-342l-55 -264h-340l55 264h-342z" />
<glyph unicode="&#xa6;" horiz-adv-x="497" d="M-29 -324l179 830h190l-178 -830h-191zM205 768l170 807h190l-170 -807h-190z" />
<glyph unicode="&#xa7;" horiz-adv-x="1054" d="M-6 -250l92 256q59 -35 121.5 -64.5t154.5 -29.5q115 0 115 82q0 27 -12 45t-37 35.5t-63.5 39t-94.5 54.5q-43 27 -81.5 56.5t-68.5 66.5t-47.5 84t-17.5 108q0 115 62.5 182.5t185.5 102.5q-31 41 -49 92t-18 121q0 88 30.5 155.5t87 113.5t135 69.5t175.5 23.5 q115 0 202.5 -30.5t171.5 -89.5l-131 -240q-53 39 -106 60.5t-119 21.5q-53 0 -77.5 -21.5t-26.5 -56.5q-2 -41 28.5 -66.5t100.5 -64.5q53 -29 103 -59.5t90 -70.5t63.5 -92t23.5 -126q0 -41 -12 -83t-41 -82t-77 -72.5t-120 -53.5q41 -45 65.5 -101.5t24.5 -131.5 q0 -76 -27.5 -140.5t-82.5 -110.5t-138 -73t-196 -27q-139 0 -233.5 38t-155.5 79zM356 530q0 -39 32 -68.5t93 -64.5q16 -10 32.5 -18t33.5 -19q127 18 127 103q0 43 -35.5 72.5t-101.5 64.5q-16 8 -30.5 15.5t-29.5 15.5q-66 -6 -93.5 -33t-27.5 -68z" />
<glyph unicode="&#xa8;" horiz-adv-x="1028" d="M311 1325q0 72 45 120t111 48q68 0 118 -48t50 -120q0 -70 -48 -117t-114 -47t-114 47t-48 117zM733 1325q0 72 45 120t111 48q70 0 119 -48t49 -120q0 -70 -48 -117t-114 -47q-68 0 -115 47t-47 117z" />
<glyph unicode="&#xa9;" horiz-adv-x="1445" d="M100 559q2 88 17.5 181.5t43 183.5t66.5 171t88 144q96 121 227.5 185.5t299.5 64.5q147 0 256.5 -42t182.5 -119t108.5 -184.5t35.5 -238.5q0 -86 -14 -178t-42 -183t-66.5 -174t-88.5 -147q-94 -129 -232 -193.5t-296 -64.5q-147 0 -258 43t-183.5 122t-108.5 187.5 t-36 241.5zM248 551q0 -102 26.5 -187t83 -145.5t144.5 -93.5t209 -33q131 0 228 57.5t165 155.5q41 57 73.5 133t55 158t35 166t12.5 160q0 98 -25.5 180t-81 139t-140.5 89t-204 32q-129 0 -224 -48t-167 -138q-43 -57 -77.5 -132t-60.5 -159t-39 -170t-13 -164zM406 590 q0 61 11 128.5t30.5 133.5t47 123t58.5 94q55 66 129 91.5t158 25.5q98 0 169.5 -31t125.5 -94l-156 -184q-20 18 -47 42.5t-80 24.5q-51 0 -78 -41q-14 -23 -27.5 -62.5t-23.5 -84.5t-16.5 -90t-6.5 -78q0 -57 24 -76.5t67 -19.5q33 -2 59.5 16t44.5 35l119 -183 q-45 -43 -122 -74.5t-155 -31.5q-166 0 -248.5 86t-82.5 250z" />
<glyph unicode="&#xaa;" horiz-adv-x="946" d="M100 635q0 80 11.5 168t36 172t61.5 157.5t86 122.5q47 47 105.5 67.5t123.5 20.5q70 0 116 -28.5t85 -79.5l43 82h254l-150 -705q-10 -51 -13 -111.5t-3 -131.5h-268v112q-57 -59 -126.5 -98t-139.5 -39q-106 0 -164 69.5t-58 221.5zM418 662q0 -47 10 -63.5t45 -16.5 q29 0 53.5 14t40.5 29l97 442q-10 12 -33 25.5t-51 13.5q-35 0 -50.5 -13.5t-33.5 -56.5q-12 -31 -26.5 -81t-26 -104t-18.5 -105.5t-7 -83.5z" />
<glyph unicode="&#xab;" horiz-adv-x="1167" d="M55 551l398 471l204 -160l-297 -352l146 -369l-248 -114zM559 530l402 492l204 -160l-301 -373l150 -348l-248 -114z" />
<glyph unicode="&#xac;" horiz-adv-x="1107" d="M109 530l67 316h864l-131 -610h-327l63 294h-536z" />
<glyph unicode="&#xad;" horiz-adv-x="663" d="M61 418l66 305h491l-65 -305h-492z" />
<glyph unicode="&#xae;" horiz-adv-x="1075" d="M137 834q0 123 42 241.5t110 202.5q74 90 172 138t215 48q96 0 176 -31.5t136 -90t87 -140.5t31 -182q0 -123 -40 -245t-110 -208q-74 -92 -175 -139t-218 -47q-96 0 -175 32.5t-134 93t-86 143.5t-31 184zM268 815q0 -154 77 -238.5t235 -84.5q184 0 286 151 q25 37 44.5 84t33.5 99.5t22.5 105.5t8.5 102q0 154 -77 237t-234 83q-182 0 -285 -152q-25 -37 -45.5 -84t-34.5 -98t-22.5 -104.5t-8.5 -100.5zM356 631l127 594h193q94 0 140 -50.5t46 -115.5q0 -125 -123 -156q20 -10 28.5 -29.5t14.5 -66.5l25 -176h-158l-22 172 q-4 35 -16.5 48t-41.5 13l-49 -233h-164zM594 977h51q27 0 39 21.5t12 48.5q0 43 -41 43h-37z" />
<glyph unicode="&#xaf;" horiz-adv-x="1028" d="M377 1221l51 247h569l-51 -247h-569z" />
<glyph unicode="&#xb0;" horiz-adv-x="835" d="M193 1032q0 106 37.5 192.5t101.5 143.5q49 45 113.5 65.5t132.5 20.5q141 0 222 -86t81 -225q0 -98 -32 -183.5t-93 -142.5q-59 -53 -122.5 -74.5t-137.5 -21.5q-141 0 -222 86t-81 225zM434 1001q0 -100 72 -100q20 0 36.5 6t30.5 23q12 14 23.5 41.5t21 60.5t14.5 68 t5 65q0 51 -16.5 80t-53.5 29q-20 0 -36.5 -6t-30.5 -23q-12 -14 -24.5 -42.5t-22 -63.5t-14.5 -71t-5 -67z" />
<glyph unicode="&#xb1;" horiz-adv-x="1191" d="M-4 0l65 309h975l-65 -309h-975zM147 713l66 305h324l57 276h328l-58 -276h324l-66 -305h-323l-60 -277h-327l59 277h-324z" />
<glyph unicode="&#xb2;" horiz-adv-x="743" d="M29 426l49 233q199 109 296 196t97 173q0 41 -25.5 60.5t-60.5 19.5q-37 0 -75 -11.5t-72 -27.5l-76 195q47 29 119.5 53t177.5 24q72 0 130 -21.5t99 -59t62.5 -90t21.5 -113.5q0 -72 -30.5 -131.5t-84 -110.5t-126 -94t-158.5 -82h336l-45 -213h-635z" />
<glyph unicode="&#xb3;" horiz-adv-x="745" d="M43 401l43 201q47 -16 104.5 -29.5t98.5 -13.5q82 0 112.5 32t30.5 85q0 37 -25.5 58.5t-74.5 21.5h-96l45 207h108q59 0 79.5 25.5t20.5 66.5q0 31 -23.5 49t-76.5 18q-45 0 -79 -8t-81 -27l-47 193q35 14 67 25.5t65.5 19.5t71.5 12t85 4q133 0 216 -65.5t85 -171.5 q0 -92 -46 -157.5t-140 -88.5q68 -23 102.5 -74t34.5 -116q0 -63 -25.5 -124t-75 -108t-123 -75.5t-169.5 -28.5q-113 0 -176.5 22.5t-110.5 46.5z" />
<glyph unicode="&#xb4;" horiz-adv-x="1028" d="M416 1317l440 299l143 -264l-487 -215z" />
<glyph unicode="&#xb5;" d="M-104 -389l307 1446h332l-150 -707q-12 -59 5.5 -83.5t49.5 -24.5q31 0 59.5 10t63.5 35l162 770h332l-168 -787q-10 -51 -15.5 -121.5t-5.5 -148.5h-290v121q-59 -61 -127 -99t-136 -38h-10q-12 -55 -25.5 -121t-25.5 -121q-14 -68 -27 -131h-331z" />
<glyph unicode="&#xb6;" horiz-adv-x="1202" d="M186 1020q0 113 40 190.5t111 125.5t165 69.5t205 21.5h559l-340 -1605h-224l302 1421h-132l-301 -1421h-223l184 876h-2q-82 0 -145 25t-107.5 68t-68 102t-23.5 127z" />
<glyph unicode="&#xb7;" horiz-adv-x="587" d="M123 647q0 39 15.5 74t42 61.5t61 42t75.5 15.5q39 0 75 -15.5t63.5 -42t43 -61.5t15.5 -74q0 -41 -15.5 -76.5t-43 -62.5t-63.5 -42t-75 -15q-41 0 -75.5 15t-61 42t-42 62.5t-15.5 76.5z" />
<glyph unicode="&#xb8;" horiz-adv-x="1048" d="M96 -416l66 121q20 -10 45.5 -17t58.5 -7q43 0 61.5 17t18.5 46q0 59 -76 59q-27 0 -42 -3t-25 -7l139 207h158l-74 -104q49 -16 81 -54.5t32 -97.5q0 -86 -61.5 -146.5t-196.5 -60.5q-68 0 -111 13.5t-74 33.5z" />
<glyph unicode="&#xb9;" horiz-adv-x="712" d="M63 426l43 199h154l76 360l-143 -33l-33 154l329 219h187l-150 -700h142l-43 -199h-562z" />
<glyph unicode="&#xba;" horiz-adv-x="946" d="M119 721q0 68 12 139.5t32.5 138t49.5 123t61 92.5q59 66 136 97.5t184 31.5q170 0 271.5 -90t103.5 -276q0 -66 -11.5 -137.5t-32 -139t-48 -126t-58.5 -95.5q-59 -72 -139 -103.5t-184 -31.5q-178 0 -277.5 95.5t-99.5 281.5zM424 670q0 -57 18.5 -82t59.5 -25 q59 0 84 58q12 31 26.5 83t26.5 110t19.5 115.5t7.5 98.5q0 53 -18.5 74.5t-59.5 21.5q-33 0 -50.5 -14t-31.5 -43q-10 -23 -24.5 -72t-27 -107.5t-21.5 -116.5t-9 -101z" />
<glyph unicode="&#xbb;" horiz-adv-x="1167" d="M0 186l301 373l-149 348l247 115l207 -504l-401 -491zM508 186l297 353l-146 368l248 115l203 -524l-397 -471z" />
<glyph unicode="&#xbc;" horiz-adv-x="2084" d="M63 426l43 199h154l76 360l-143 -33l-33 154l329 219h187l-150 -700h142l-43 -199h-562zM410 0l964 1317h264l-964 -1317h-264zM1112 102l47 222l352 567h265l-353 -580h164l62 283l270 39l-70 -322h93l-46 -209h-92l-39 -186h-262l39 186h-430z" />
<glyph unicode="&#xbd;" horiz-adv-x="2095" d="M63 426l43 199h154l76 360l-143 -33l-33 154l329 219h187l-150 -700h142l-43 -199h-562zM410 0l964 1317h264l-964 -1317h-264zM1237 0l49 233q199 109 296 196t97 173q0 41 -25.5 60.5t-60.5 19.5q-37 0 -74.5 -11.5t-72.5 -27.5l-76 195q47 29 120 53t177 24 q72 0 130 -21.5t99 -59t62.5 -90t21.5 -113.5q0 -72 -30.5 -131.5t-84 -110.5t-126 -94t-158.5 -82h336l-45 -213h-635z" />
<glyph unicode="&#xbe;" horiz-adv-x="2195" d="M43 401l43 201q47 -16 104.5 -29.5t98.5 -13.5q82 0 112.5 32t30.5 85q0 37 -25.5 58.5t-74.5 21.5h-96l45 207h108q59 0 79.5 25.5t20.5 66.5q0 31 -23.5 49t-76.5 18q-45 0 -79 -8t-81 -27l-47 193q35 14 67 25.5t65.5 19.5t71.5 12t85 4q133 0 216 -65.5t85 -171.5 q0 -92 -46 -157.5t-140 -88.5q68 -23 102.5 -74t34.5 -116q0 -63 -25.5 -124t-75 -108t-123 -75.5t-169.5 -28.5q-113 0 -176.5 22.5t-110.5 46.5zM426 0l965 1317h264l-965 -1317h-264zM1112 102l47 222l352 567h265l-353 -580h164l62 283l270 39l-70 -322h93l-46 -209h-92 l-39 -186h-262l39 186h-430z" />
<glyph unicode="&#xbf;" horiz-adv-x="913" d="M-41 -51q0 84 18.5 147.5t54.5 113.5t89 89t121 76q33 18 57.5 35.5t42.5 39t29.5 49t19.5 68.5l15 74h274l-33 -156q-14 -66 -31.5 -111.5t-40 -79.5t-50 -58.5t-64.5 -45.5q-49 -29 -79 -53t-47.5 -47.5t-22.5 -47.5t-5 -50q0 -49 29 -80t94 -31q59 0 118.5 20.5 t88.5 37.5l68 -248q-70 -35 -157.5 -59.5t-185.5 -24.5q-182 0 -292.5 83t-110.5 259zM414 901q0 76 52 128t128 52t128 -52t52 -128t-52 -129t-128 -53t-128 53t-52 129z" />
<glyph unicode="&#xc0;" horiz-adv-x="1146" d="M-90 0l682 1427h354l66 -1427h-346l-2 238h-297l-99 -238h-358zM473 494h189v258q0 43 2 91t5 92t6 80t7 56h-4q-6 -20 -14.5 -55t-19.5 -77t-25.5 -88t-30.5 -85zM485 1718l179 250l370 -303l-125 -168z" />
<glyph unicode="&#xc1;" horiz-adv-x="1146" d="M-90 0l682 1427h354l66 -1427h-346l-2 238h-297l-99 -238h-358zM473 494h189v258q0 43 2 91t5 92t6 80t7 56h-4q-6 -20 -14.5 -55t-19.5 -77t-25.5 -88t-30.5 -85zM553 1675l440 299l144 -264l-488 -215z" />
<glyph unicode="&#xc2;" horiz-adv-x="1146" d="M-90 0l682 1427h354l66 -1427h-346l-2 238h-297l-99 -238h-358zM453 1630l303 277h168l204 -277l-112 -135l-209 152l-272 -152zM473 494h189v258q0 43 2 91t5 92t6 80t7 56h-4q-6 -20 -14.5 -55t-19.5 -77t-25.5 -88t-30.5 -85z" />
<glyph unicode="&#xc3;" horiz-adv-x="1146" d="M-90 0l682 1427h354l66 -1427h-346l-2 238h-297l-99 -238h-358zM420 1632q113 229 272 230q49 0 81 -10.5t56.5 -23.5t46 -23.5t48.5 -10.5q29 0 51 21.5t49 56.5l160 -115q-113 -229 -271 -229q-49 0 -81.5 10t-57 23.5t-46 23.5t-48.5 10q-29 0 -51.5 -21.5 t-48.5 -55.5zM473 494h189v258q0 43 2 91t5 92t6 80t7 56h-4q-6 -20 -14.5 -55t-19.5 -77t-25.5 -88t-30.5 -85z" />
<glyph unicode="&#xc4;" horiz-adv-x="1146" d="M-90 0l682 1427h354l66 -1427h-346l-2 238h-297l-99 -238h-358zM408 1683q0 72 45 120t110 48q68 0 118 -48t50 -120q0 -70 -48 -116.5t-114 -46.5t-113.5 47t-47.5 116zM473 494h189v258q0 43 2 91t5 92t6 80t7 56h-4q-6 -20 -14.5 -55t-19.5 -77t-25.5 -88t-30.5 -85z M829 1683q0 72 45.5 120t110.5 48q70 0 119 -48t49 -120q0 -70 -48 -116.5t-114 -46.5q-68 0 -115 47t-47 116z" />
<glyph unicode="&#xc5;" horiz-adv-x="1146" d="M-90 0l682 1427h354l66 -1427h-346l-2 238h-297l-99 -238h-358zM473 494h189v258q0 43 2 91t5 92t6 80t7 56h-4q-6 -20 -14.5 -55t-19.5 -77t-25.5 -88t-30.5 -85zM567 1712q0 27 6 57q23 104 89.5 161t164.5 57t156.5 -59.5t58.5 -149.5q0 -27 -6 -58 q-23 -104 -89.5 -160.5t-160.5 -56.5q-104 0 -161.5 59.5t-57.5 149.5zM733 1702q1 -70 60 -70q33 0 51 29t28 76q2 10 3.5 20t1.5 29q0 72 -58 72q-35 0 -53 -27t-29 -78q-2 -8 -3 -19.5t-1 -31.5z" />
<glyph unicode="&#xc6;" horiz-adv-x="1617" d="M-113 0l949 1427h884l-61 -292h-412l-53 -252h324l-62 -283h-323l-64 -303h449l-64 -297h-799l47 225h-319l-139 -225h-357zM537 471h219l51 242q14 66 30.5 133t33 127.5t29.5 108.5t20 77h-5q-10 -25 -30.5 -71t-48 -102t-59.5 -116.5t-64 -113.5z" />
<glyph unicode="&#xc7;" horiz-adv-x="1073" d="M90 489q0 106 18.5 224t51.5 228t78 202t96 147q88 96 189.5 130t230.5 34q147 0 241.5 -41t159.5 -100l-164 -256q-39 41 -93 72.5t-128 31.5q-63 0 -106 -24.5t-76 -89.5q-23 -45 -44.5 -120t-39 -158t-28.5 -163t-11 -137q0 -59 11 -99t31.5 -62.5t50.5 -32t67 -9.5 q72 0 139 30t121 64l73 -282q-61 -39 -147 -72t-213 -33q-16 0 -29.5 1t-29.5 1l-56 -79q49 -16 81 -54.5t32 -97.5q0 -86 -61.5 -146.5t-196.5 -60.5q-68 0 -111 13.5t-73 33.5l65 121q20 -10 46 -17t59 -7q43 0 61 17t18 46q0 59 -75 59q-27 0 -42.5 -3t-25.5 -7l137 207 q-152 43 -229.5 164t-77.5 325z" />
<glyph unicode="&#xc8;" horiz-adv-x="970" d="M8 0l303 1427h762l-61 -292h-412l-53 -252h323l-61 -283h-324l-63 -303h448l-63 -297h-799zM397 1718l178 250l371 -303l-125 -168z" />
<glyph unicode="&#xc9;" horiz-adv-x="970" d="M8 0l303 1427h762l-61 -292h-412l-53 -252h323l-61 -283h-324l-63 -303h448l-63 -297h-799zM465 1675l440 299l144 -264l-488 -215z" />
<glyph unicode="&#xca;" horiz-adv-x="970" d="M8 0l303 1427h762l-61 -292h-412l-53 -252h323l-61 -283h-324l-63 -303h448l-63 -297h-799zM389 1630l303 277h168l205 -277l-113 -135l-209 152l-272 -152z" />
<glyph unicode="&#xcb;" horiz-adv-x="970" d="M8 0l303 1427h762l-61 -292h-412l-53 -252h323l-61 -283h-324l-63 -303h448l-63 -297h-799zM348 1683q0 72 45 120t111 48q68 0 118 -48t50 -120q0 -70 -48 -116.5t-114 -46.5t-114 47t-48 116zM770 1683q0 72 45 120t111 48q70 0 119 -48t49 -120q0 -70 -48 -116.5 t-114 -46.5q-68 0 -115 47t-47 116z" />
<glyph unicode="&#xcc;" horiz-adv-x="786" d="M-33 0l39 188l146 39l206 979l-127 33l39 188h627l-39 -188l-145 -39l-207 -981l127 -31l-39 -188h-627zM305 1718l178 250l371 -303l-125 -168z" />
<glyph unicode="&#xcd;" horiz-adv-x="786" d="M-33 0l39 188l146 39l206 979l-127 33l39 188h627l-39 -188l-145 -39l-207 -981l127 -31l-39 -188h-627zM352 1675l441 299l143 -264l-487 -215z" />
<glyph unicode="&#xce;" horiz-adv-x="786" d="M-33 0l39 188l146 39l206 979l-127 33l39 188h627l-39 -188l-145 -39l-207 -981l127 -31l-39 -188h-627zM272 1630l303 277h168l205 -277l-112 -135l-209 152l-273 -152z" />
<glyph unicode="&#xcf;" horiz-adv-x="786" d="M-33 0l39 188l146 39l206 979l-127 33l39 188h627l-39 -188l-145 -39l-207 -981l127 -31l-39 -188h-627zM248 1683q0 72 45 120t110 48q68 0 118 -48t50 -120q0 -70 -47.5 -116.5t-113.5 -46.5t-114 47t-48 116zM670 1683q0 72 45 120t110 48q70 0 119 -48t49 -120 q0 -70 -48 -116.5t-114 -46.5q-68 0 -114.5 47t-46.5 116z" />
<glyph unicode="&#xd0;" horiz-adv-x="1239" d="M18 0l121 567h-102l57 271h103l125 589h450q104 0 188 -28.5t143.5 -89t92.5 -152.5t33 -217q0 -100 -14.5 -211t-44 -217t-73.5 -199.5t-104 -156.5q-72 -78 -176 -117t-254 -39h-545zM432 297h127q29 0 56.5 4t52 17.5t47 38t43.5 65.5q20 43 39.5 109.5t35 140 t24.5 145.5t9 123q0 57 -12 95t-33.5 60.5t-49.5 31t-60 8.5h-101l-63 -297h158l-58 -271h-158z" />
<glyph unicode="&#xd1;" horiz-adv-x="1214" d="M8 0l303 1427h326l125 -589q16 -72 27.5 -161t17.5 -161h2q2 33 6 77t9 93t12.5 100.5t17.5 98.5l115 542h315l-303 -1427h-346l-109 594q-16 80 -27.5 165t-19.5 152h-2q0 -23 -2 -63.5t-7 -95t-14.5 -120t-23.5 -132.5l-106 -500h-316zM453 1632q113 229 272 230 q49 0 81 -10.5t56.5 -23.5t46 -23.5t47.5 -10.5q29 0 51.5 21.5t49.5 56.5l160 -115q-113 -229 -271 -229q-49 0 -82 10t-57.5 23.5t-46 23.5t-47.5 10q-29 0 -51.5 -21.5t-49.5 -55.5z" />
<glyph unicode="&#xd2;" horiz-adv-x="1284" d="M90 492q0 104 19.5 217.5t53.5 221t80 200t101 151.5q84 90 190.5 131t247.5 41q238 0 366 -123t128 -375q0 -102 -18.5 -217.5t-52.5 -226.5t-79 -208t-100 -159q-80 -90 -188.5 -131t-249.5 -41q-238 0 -368 131.5t-130 387.5zM453 440q0 -100 37.5 -142t111.5 -42 q61 0 103.5 24.5t74.5 90.5q23 47 46.5 127t43 170t31.5 177t12 146q0 98 -36.5 140.5t-110.5 42.5q-63 0 -104 -25t-74 -90q-23 -43 -46.5 -123t-43 -170t-32.5 -178t-13 -148zM553 1718l178 250l371 -303l-125 -168z" />
<glyph unicode="&#xd3;" horiz-adv-x="1284" d="M90 492q0 104 19.5 217.5t53.5 221t80 200t101 151.5q84 90 190.5 131t247.5 41q238 0 366 -123t128 -375q0 -102 -18.5 -217.5t-52.5 -226.5t-79 -208t-100 -159q-80 -90 -188.5 -131t-249.5 -41q-238 0 -368 131.5t-130 387.5zM453 440q0 -100 37.5 -142t111.5 -42 q61 0 103.5 24.5t74.5 90.5q23 47 46.5 127t43 170t31.5 177t12 146q0 98 -36.5 140.5t-110.5 42.5q-63 0 -104 -25t-74 -90q-23 -43 -46.5 -123t-43 -170t-32.5 -178t-13 -148zM580 1675l440 299l143 -264l-487 -215z" />
<glyph unicode="&#xd4;" horiz-adv-x="1284" d="M90 492q0 104 19.5 217.5t53.5 221t80 200t101 151.5q84 90 190.5 131t247.5 41q238 0 366 -123t128 -375q0 -102 -18.5 -217.5t-52.5 -226.5t-79 -208t-100 -159q-80 -90 -188.5 -131t-249.5 -41q-238 0 -368 131.5t-130 387.5zM453 440q0 -100 37.5 -142t111.5 -42 q61 0 103.5 24.5t74.5 90.5q23 47 46.5 127t43 170t31.5 177t12 146q0 98 -36.5 140.5t-110.5 42.5q-63 0 -104 -25t-74 -90q-23 -43 -46.5 -123t-43 -170t-32.5 -178t-13 -148zM496 1630l303 277h168l204 -277l-112 -135l-209 152l-272 -152z" />
<glyph unicode="&#xd5;" horiz-adv-x="1284" d="M90 492q0 104 19.5 217.5t53.5 221t80 200t101 151.5q84 90 190.5 131t247.5 41q238 0 366 -123t128 -375q0 -102 -18.5 -217.5t-52.5 -226.5t-79 -208t-100 -159q-80 -90 -188.5 -131t-249.5 -41q-238 0 -368 131.5t-130 387.5zM453 440q0 -100 37.5 -142t111.5 -42 q61 0 103.5 24.5t74.5 90.5q23 47 46.5 127t43 170t31.5 177t12 146q0 98 -36.5 140.5t-110.5 42.5q-63 0 -104 -25t-74 -90q-23 -43 -46.5 -123t-43 -170t-32.5 -178t-13 -148zM463 1632q113 229 272 230q49 0 81 -10.5t56.5 -23.5t46 -23.5t48.5 -10.5q29 0 51 21.5 t49 56.5l160 -115q-113 -229 -271 -229q-49 0 -81.5 10t-57 23.5t-46 23.5t-48.5 10q-29 0 -51.5 -21.5t-48.5 -55.5z" />
<glyph unicode="&#xd6;" horiz-adv-x="1284" d="M90 492q0 104 19.5 217.5t53.5 221t80 200t101 151.5q84 90 190.5 131t247.5 41q238 0 366 -123t128 -375q0 -102 -18.5 -217.5t-52.5 -226.5t-79 -208t-100 -159q-80 -90 -188.5 -131t-249.5 -41q-238 0 -368 131.5t-130 387.5zM453 440q0 -100 37.5 -142t111.5 -42 q61 0 103.5 24.5t74.5 90.5q23 47 46.5 127t43 170t31.5 177t12 146q0 98 -36.5 140.5t-110.5 42.5q-63 0 -104 -25t-74 -90q-23 -43 -46.5 -123t-43 -170t-32.5 -178t-13 -148zM467 1683q0 72 45 120t111 48q68 0 118 -48t50 -120q0 -70 -48 -116.5t-114 -46.5t-114 47 t-48 116zM889 1683q0 72 45 120t110 48q70 0 119 -48t49 -120q0 -70 -47.5 -116.5t-113.5 -46.5q-68 0 -115 47t-47 116z" />
<glyph unicode="&#xd7;" horiz-adv-x="1191" d="M76 367l336 290l-213 287l235 209l215 -291l336 291l176 -233l-336 -293l213 -287l-235 -209l-215 289l-334 -289z" />
<glyph unicode="&#xd8;" horiz-adv-x="1284" d="M-53 -66l207 261q-63 115 -64 297q0 104 19.5 217.5t53.5 221t80 200t101 151.5q84 90 190.5 131t247.5 41q190 0 314 -82l168 209l151 -119l-192 -239q53 -111 53 -267q0 -102 -18.5 -217.5t-52.5 -226.5t-79 -208t-100 -159q-80 -90 -188.5 -131t-249.5 -41 q-178 0 -301 76l-187 -233zM446 559l449 561q-41 53 -129 54q-63 0 -104 -24.5t-74 -90.5q-16 -35 -37 -92.5t-41.5 -127t-36.5 -142t-27 -138.5zM483 295q41 -39 119 -39q61 0 103.5 24.5t74.5 90.5q16 35 36 88t37 115.5t33.5 130t26.5 129.5z" />
<glyph unicode="&#xd9;" horiz-adv-x="1204" d="M80 324q0 43 6 91t16 101l193 911h350l-207 -978q-10 -47 -10 -76q0 -49 23.5 -77t83.5 -28q51 0 87.5 20.5t67.5 45.5l234 1093h350l-303 -1427h-228l-26 111q-27 -29 -55.5 -54.5t-63.5 -44t-80 -29t-102 -10.5q-162 0 -249 88.5t-87 262.5zM494 1718l178 250l370 -303 l-124 -168z" />
<glyph unicode="&#xda;" horiz-adv-x="1204" d="M80 324q0 43 6 91t16 101l193 911h350l-207 -978q-10 -47 -10 -76q0 -49 23.5 -77t83.5 -28q51 0 87.5 20.5t67.5 45.5l234 1093h350l-303 -1427h-228l-26 111q-27 -29 -55.5 -54.5t-63.5 -44t-80 -29t-102 -10.5q-162 0 -249 88.5t-87 262.5zM602 1675l440 299l144 -264 l-488 -215z" />
<glyph unicode="&#xdb;" horiz-adv-x="1204" d="M80 324q0 43 6 91t16 101l193 911h350l-207 -978q-10 -47 -10 -76q0 -49 23.5 -77t83.5 -28q51 0 87.5 20.5t67.5 45.5l234 1093h350l-303 -1427h-228l-26 111q-27 -29 -55.5 -54.5t-63.5 -44t-80 -29t-102 -10.5q-162 0 -249 88.5t-87 262.5zM461 1630l303 277h168 l205 -277l-113 -135l-209 152l-272 -152z" />
<glyph unicode="&#xdc;" horiz-adv-x="1204" d="M80 324q0 43 6 91t16 101l193 911h350l-207 -978q-10 -47 -10 -76q0 -49 23.5 -77t83.5 -28q51 0 87.5 20.5t67.5 45.5l234 1093h350l-303 -1427h-228l-26 111q-27 -29 -55.5 -54.5t-63.5 -44t-80 -29t-102 -10.5q-162 0 -249 88.5t-87 262.5zM428 1683q0 72 45 120 t111 48q68 0 118 -48t50 -120q0 -70 -48 -116.5t-114 -46.5t-114 47t-48 116zM850 1683q0 72 45 120t111 48q70 0 119 -48t49 -120q0 -70 -48 -116.5t-114 -46.5q-68 0 -115 47t-47 116z" />
<glyph unicode="&#xdd;" horiz-adv-x="1128" d="M209 1427h358l54 -262q16 -78 20 -150.5t4 -146.5q23 74 50.5 136.5t62.5 123.5l160 299h382l-548 -827l-127 -600h-353l134 629zM543 1675l440 299l143 -264l-487 -215z" />
<glyph unicode="&#xde;" horiz-adv-x="1132" d="M8 0l303 1427h351l-48 -227h39q221 0 340 -89t121 -275q0 -55 -7 -112.5t-22.5 -112t-38 -102.5t-53.5 -83q-59 -68 -158.5 -104.5t-265.5 -36.5h-149l-62 -285h-350zM479 563h92q53 0 90 7.5t62 37.5q23 27 35 75t12 108q0 66 -30.5 93t-86.5 27h-100z" />
<glyph unicode="&#xdf;" horiz-adv-x="1124" d="M-141 -98q27 23 50 43t42.5 45.5t35 59.5t25.5 83l199 938q23 111 68 187.5t106 125t139 70t166 21.5q195 0 298.5 -86t103.5 -248q0 -96 -36 -151.5t-79 -89.5t-79 -58.5t-36 -57.5q0 -23 18.5 -44t63.5 -74q35 -41 67.5 -114t32.5 -181q0 -190 -107.5 -294t-297.5 -104 q-154 0 -246 54l70 239q20 -8 51 -14t66 -6q61 2 84.5 34.5t23.5 100.5q0 47 -22.5 84t-51.5 80q-27 39 -43 78t-16 98q0 96 34 147.5t75 86t74.5 67.5t33.5 94q0 53 -21.5 73.5t-68.5 20.5q-53 0 -90 -35.5t-60 -136.5l-200 -940q-16 -80 -42 -137t-67 -101t-99 -81 t-142 -74z" />
<glyph unicode="&#xe0;" horiz-adv-x="1030" d="M29 295q0 88 13 186.5t40 192.5t67.5 175t96.5 136q53 53 117.5 75.5t136.5 22.5q78 0 130 -31.5t93 -88.5l49 94h275l-168 -787q-12 -53 -14.5 -122.5t-2.5 -147.5h-291v125q-63 -66 -141 -109t-156 -43q-117 0 -181 78t-64 244zM369 1360l178 250l371 -303l-125 -168z M375 324q0 -51 12 -71t49 -20q31 0 62.5 16.5t50.5 33.5l106 495q-12 14 -35.5 28.5t-58.5 14.5q-39 0 -58.5 -15t-39.5 -63q-14 -35 -29.5 -90t-29 -116.5t-21.5 -119t-8 -93.5z" />
<glyph unicode="&#xe1;" horiz-adv-x="1030" d="M29 295q0 88 13 186.5t40 192.5t67.5 175t96.5 136q53 53 117.5 75.5t136.5 22.5q78 0 130 -31.5t93 -88.5l49 94h275l-168 -787q-12 -53 -14.5 -122.5t-2.5 -147.5h-291v125q-63 -66 -141 -109t-156 -43q-117 0 -181 78t-64 244zM375 324q0 -51 12 -71t49 -20 q31 0 62.5 16.5t50.5 33.5l106 495q-12 14 -35.5 28.5t-58.5 14.5q-39 0 -58.5 -15t-39.5 -63q-14 -35 -29.5 -90t-29 -116.5t-21.5 -119t-8 -93.5zM416 1317l440 299l143 -264l-487 -215z" />
<glyph unicode="&#xe2;" horiz-adv-x="1030" d="M29 295q0 88 13 186.5t40 192.5t67.5 175t96.5 136q53 53 117.5 75.5t136.5 22.5q78 0 130 -31.5t93 -88.5l49 94h275l-168 -787q-12 -53 -14.5 -122.5t-2.5 -147.5h-291v125q-63 -66 -141 -109t-156 -43q-117 0 -181 78t-64 244zM319 1272l304 276h168l204 -276 l-112 -135l-209 151l-273 -151zM375 324q0 -51 12 -71t49 -20q31 0 62.5 16.5t50.5 33.5l106 495q-12 14 -35.5 28.5t-58.5 14.5q-39 0 -58.5 -15t-39.5 -63q-14 -35 -29.5 -90t-29 -116.5t-21.5 -119t-8 -93.5z" />
<glyph unicode="&#xe3;" horiz-adv-x="1030" d="M29 295q0 88 13 186.5t40 192.5t67.5 175t96.5 136q53 53 117.5 75.5t136.5 22.5q78 0 130 -31.5t93 -88.5l49 94h275l-168 -787q-12 -53 -14.5 -122.5t-2.5 -147.5h-291v125q-63 -66 -141 -109t-156 -43q-117 0 -181 78t-64 244zM303 1274q113 229 272 229q49 0 81 -10 t56.5 -23.5t46 -23.5t48.5 -10q29 0 51.5 21.5t48.5 55.5l160 -114q-113 -229 -270 -230q-49 0 -82 10.5t-57.5 24t-46 23.5t-48.5 10q-29 0 -51.5 -21.5t-48.5 -56.5zM375 324q0 -51 12 -71t49 -20q31 0 62.5 16.5t50.5 33.5l106 495q-12 14 -35.5 28.5t-58.5 14.5 q-39 0 -58.5 -15t-39.5 -63q-14 -35 -29.5 -90t-29 -116.5t-21.5 -119t-8 -93.5z" />
<glyph unicode="&#xe4;" horiz-adv-x="1030" d="M29 295q0 88 13 186.5t40 192.5t67.5 175t96.5 136q53 53 117.5 75.5t136.5 22.5q78 0 130 -31.5t93 -88.5l49 94h275l-168 -787q-12 -53 -14.5 -122.5t-2.5 -147.5h-291v125q-63 -66 -141 -109t-156 -43q-117 0 -181 78t-64 244zM311 1325q0 72 45 120t111 48 q68 0 118 -48t50 -120q0 -70 -48 -117t-114 -47t-114 47t-48 117zM375 324q0 -51 12 -71t49 -20q31 0 62.5 16.5t50.5 33.5l106 495q-12 14 -35.5 28.5t-58.5 14.5q-39 0 -58.5 -15t-39.5 -63q-14 -35 -29.5 -90t-29 -116.5t-21.5 -119t-8 -93.5zM733 1325q0 72 45 120 t111 48q70 0 119 -48t49 -120q0 -70 -48 -117t-114 -47q-68 0 -115 47t-47 117z" />
<glyph unicode="&#xe5;" horiz-adv-x="1030" d="M29 295q0 88 13 186.5t40 192.5t67.5 175t96.5 136q53 53 117.5 75.5t136.5 22.5q78 0 130 -31.5t93 -88.5l49 94h275l-168 -787q-12 -53 -14.5 -122.5t-2.5 -147.5h-291v125q-63 -66 -141 -109t-156 -43q-117 0 -181 78t-64 244zM375 324q0 -51 12 -71t49 -20 q31 0 62.5 16.5t50.5 33.5l106 495q-12 14 -35.5 28.5t-58.5 14.5q-39 0 -58.5 -15t-39.5 -63q-14 -35 -29.5 -90t-29 -116.5t-21.5 -119t-8 -93.5zM459 1354q0 27 6 57q23 104 89.5 160.5t164.5 56.5t156.5 -59.5t58.5 -149.5q0 -27 -6 -57q-23 -104 -89.5 -160.5 t-160.5 -56.5q-104 0 -161.5 59.5t-57.5 149.5zM625 1343q0 -69 59 -69q33 0 51.5 28.5t28.5 75.5q2 10 3 20.5t1 28.5q0 72 -57 72q-35 0 -53.5 -26.5t-28.5 -77.5q-2 -8 -3 -19.5t-1 -32.5z" />
<glyph unicode="&#xe6;" horiz-adv-x="1490" d="M6 242q0 209 119 302t373 93h69l11 43q16 74 -3.5 108.5t-80.5 34.5q-72 0 -132.5 -19.5t-123.5 -53.5l-105 211q102 66 201.5 94t222.5 28q86 0 143.5 -22.5t94.5 -61.5q121 84 299 84q174 0 270 -86t96 -231q0 -104 -41 -173t-117.5 -111t-187 -59t-250.5 -17v-25 q0 -86 37 -119t100 -33q98 0 165 27t120 61l64 -237q-55 -41 -155.5 -74t-217.5 -33q-141 0 -228 42t-139 126q-25 -31 -56.5 -60.5t-71.5 -53t-89 -39t-110 -15.5q-70 0 -122 22.5t-86 59.5t-51.5 85t-17.5 102zM322 279q0 -45 16 -63.5t51 -18.5q25 0 45.5 9t46.5 30 l45 206h-16q-59 0 -95 -12t-57.5 -33.5t-28.5 -52.5t-7 -65zM897 623q49 0 95 5t82 19.5t56.5 41t20.5 71.5q0 47 -21.5 67.5t-56.5 20.5t-64.5 -14.5t-54.5 -55.5q-16 -27 -31.5 -67.5t-25.5 -87.5z" />
<glyph unicode="&#xe7;" horiz-adv-x="845" d="M39 -416l65 121q20 -10 46 -17t59 -7q43 0 61.5 17t18.5 46q0 59 -76 59q-27 0 -42 -3t-26 -7l138 205q-242 76 -242 391q0 74 11 153t32.5 151.5t53.5 136t71 110.5q131 154 373 141q106 -4 167.5 -27.5t116.5 -62.5l-129 -231q-39 27 -73.5 42t-79.5 17q-39 2 -69 -10 t-52 -57q-14 -29 -27.5 -76t-25 -101.5t-17.5 -109.5t-6 -100q0 -72 23.5 -103t76.5 -31t99.5 21.5t87.5 50.5l63 -231q-57 -41 -128.5 -69t-164.5 -28h-20l-55 -79q49 -16 80.5 -54.5t31.5 -97.5q0 -86 -61.5 -146.5t-196.5 -60.5q-68 0 -110.5 13.5t-73.5 33.5z" />
<glyph unicode="&#xe8;" horiz-adv-x="1009" d="M47 403q0 70 13.5 145t38 144.5t58 131t74.5 104.5q74 78 166 116.5t215 38.5q174 0 270.5 -86t96.5 -231q0 -104 -41 -175t-118 -115t-187.5 -63.5t-249.5 -19.5v-12q0 -86 37 -119t100 -33q98 0 165 27t120 61l63 -237q-55 -41 -155 -74t-217 -33q-225 0 -337 114 t-112 316zM340 1360l178 250l371 -303l-125 -168zM412 610q51 0 97 6.5t82 23.5t57.5 46t21.5 74q0 47 -21.5 67.5t-56.5 20.5t-64.5 -14.5t-54.5 -55.5q-16 -29 -32.5 -72.5t-28.5 -95.5z" />
<glyph unicode="&#xe9;" horiz-adv-x="1009" d="M47 403q0 70 13.5 145t38 144.5t58 131t74.5 104.5q74 78 166 116.5t215 38.5q174 0 270.5 -86t96.5 -231q0 -104 -41 -175t-118 -115t-187.5 -63.5t-249.5 -19.5v-12q0 -86 37 -119t100 -33q98 0 165 27t120 61l63 -237q-55 -41 -155 -74t-217 -33q-225 0 -337 114 t-112 316zM385 1317l440 299l144 -264l-488 -215zM412 610q51 0 97 6.5t82 23.5t57.5 46t21.5 74q0 47 -21.5 67.5t-56.5 20.5t-64.5 -14.5t-54.5 -55.5q-16 -29 -32.5 -72.5t-28.5 -95.5z" />
<glyph unicode="&#xea;" horiz-adv-x="1009" d="M47 403q0 70 13.5 145t38 144.5t58 131t74.5 104.5q74 78 166 116.5t215 38.5q174 0 270.5 -86t96.5 -231q0 -104 -41 -175t-118 -115t-187.5 -63.5t-249.5 -19.5v-12q0 -86 37 -119t100 -33q98 0 165 27t120 61l63 -237q-55 -41 -155 -74t-217 -33q-225 0 -337 114 t-112 316zM305 1272l303 276h168l205 -276l-113 -135l-209 151l-272 -151zM412 610q51 0 97 6.5t82 23.5t57.5 46t21.5 74q0 47 -21.5 67.5t-56.5 20.5t-64.5 -14.5t-54.5 -55.5q-16 -29 -32.5 -72.5t-28.5 -95.5z" />
<glyph unicode="&#xeb;" horiz-adv-x="1009" d="M47 403q0 70 13.5 145t38 144.5t58 131t74.5 104.5q74 78 166 116.5t215 38.5q174 0 270.5 -86t96.5 -231q0 -104 -41 -175t-118 -115t-187.5 -63.5t-249.5 -19.5v-12q0 -86 37 -119t100 -33q98 0 165 27t120 61l63 -237q-55 -41 -155 -74t-217 -33q-225 0 -337 114 t-112 316zM281 1325q0 72 45 120t110 48q68 0 118 -48t50 -120q0 -70 -48 -117t-114 -47t-113.5 47t-47.5 117zM412 610q51 0 97 6.5t82 23.5t57.5 46t21.5 74q0 47 -21.5 67.5t-56.5 20.5t-64.5 -14.5t-54.5 -55.5q-16 -29 -32.5 -72.5t-28.5 -95.5zM702 1325 q0 72 45.5 120t110.5 48q70 0 119 -48t49 -120q0 -70 -48 -117t-114 -47q-68 0 -115 47t-47 117z" />
<glyph unicode="&#xec;" horiz-adv-x="563" d="M16 0l172 811l-88 37l45 209h428l-225 -1057h-332zM125 1360l178 250l371 -303l-125 -168z" />
<glyph unicode="&#xed;" horiz-adv-x="563" d="M16 0l172 811l-88 37l45 209h428l-225 -1057h-332zM193 1317l440 299l143 -264l-487 -215z" />
<glyph unicode="&#xee;" horiz-adv-x="563" d="M16 0l172 811l-88 37l45 209h428l-225 -1057h-332zM76 1272l303 276h168l205 -276l-113 -135l-209 151l-272 -151z" />
<glyph unicode="&#xef;" horiz-adv-x="563" d="M16 0l172 811l-88 37l45 209h428l-225 -1057h-332zM49 1325q0 72 45 120t111 48q68 0 118 -48t50 -120q0 -70 -48 -117t-114 -47t-114 47t-48 117zM471 1325q0 72 45 120t111 48q70 0 119 -48t49 -120q0 -70 -48 -117t-114 -47q-68 0 -115 47t-47 117z" />
<glyph unicode="&#xf0;" horiz-adv-x="1034" d="M53 391q0 150 45 278t113 201q66 72 139.5 98.5t157.5 26.5q41 0 74.5 -12t60.5 -33q-10 47 -25.5 90t-35.5 80l-201 -78l-59 148l161 63q-35 35 -69.5 62.5t-69.5 50.5l125 211q86 -45 161 -97.5t136 -115.5l213 84l59 -148l-170 -67q63 -98 97 -218t34 -267 q0 -78 -12 -167t-35.5 -174t-56.5 -160t-74 -124q-66 -78 -151.5 -114t-202.5 -36q-199 0 -306.5 113t-107.5 305zM383 332q0 -63 21.5 -91t68.5 -28q68 0 96 66q14 33 28.5 78.5t25 96t17.5 100.5t7 93q0 59 -24.5 83t-69.5 24q-35 0 -56.5 -15.5t-37.5 -48.5 q-12 -25 -25.5 -66.5t-25 -91t-18.5 -102.5t-7 -98z" />
<glyph unicode="&#xf1;" d="M-16 0l172 813q25 119 24 244h285v-125q68 66 147.5 108.5t173.5 42.5q104 0 161 -63.5t57 -179.5q0 -59 -13 -115l-153 -725h-332l149 707q2 8 3 17t1 21q0 37 -17 51.5t-44 14.5q-31 0 -57.5 -10t-63.5 -39l-162 -762h-331zM260 1274q113 229 272 229q49 0 81 -10 t56.5 -23.5t46 -23.5t48.5 -10q29 0 51.5 21.5t48.5 55.5l160 -114q-113 -229 -270 -230q-49 0 -82 10.5t-57.5 24t-46 23.5t-48.5 10q-29 0 -51.5 -21.5t-48.5 -56.5z" />
<glyph unicode="&#xf2;" horiz-adv-x="1042" d="M53 391q0 74 13.5 155t36 154.5t54 136t68.5 103.5q66 72 151 107.5t204 35.5q188 0 298.5 -100t112.5 -307q0 -72 -13 -152t-35.5 -154.5t-53.5 -140t-66 -106.5q-66 -78 -151.5 -114t-202.5 -36q-199 0 -307.5 106.5t-108.5 311.5zM334 1360l178 250l371 -303 l-125 -168zM385 332q0 -63 21.5 -91t68.5 -28q68 0 96 66q14 33 29.5 92t29 124.5t21.5 130t8 109.5q0 59 -21.5 83t-66.5 24q-35 0 -56 -15.5t-38 -48.5q-12 -25 -28.5 -80t-29.5 -121.5t-23.5 -132t-10.5 -112.5z" />
<glyph unicode="&#xf3;" horiz-adv-x="1042" d="M53 391q0 74 13.5 155t36 154.5t54 136t68.5 103.5q66 72 151 107.5t204 35.5q188 0 298.5 -100t112.5 -307q0 -72 -13 -152t-35.5 -154.5t-53.5 -140t-66 -106.5q-66 -78 -151.5 -114t-202.5 -36q-199 0 -307.5 106.5t-108.5 311.5zM385 332q0 -63 21.5 -91t68.5 -28 q68 0 96 66q14 33 29.5 92t29 124.5t21.5 130t8 109.5q0 59 -21.5 83t-66.5 24q-35 0 -56 -15.5t-38 -48.5q-12 -25 -28.5 -80t-29.5 -121.5t-23.5 -132t-10.5 -112.5zM422 1317l440 299l144 -264l-488 -215z" />
<glyph unicode="&#xf4;" horiz-adv-x="1042" d="M53 391q0 74 13.5 155t36 154.5t54 136t68.5 103.5q66 72 151 107.5t204 35.5q188 0 298.5 -100t112.5 -307q0 -72 -13 -152t-35.5 -154.5t-53.5 -140t-66 -106.5q-66 -78 -151.5 -114t-202.5 -36q-199 0 -307.5 106.5t-108.5 311.5zM291 1272l303 276h168l205 -276 l-113 -135l-209 151l-272 -151zM385 332q0 -63 21.5 -91t68.5 -28q68 0 96 66q14 33 29.5 92t29 124.5t21.5 130t8 109.5q0 59 -21.5 83t-66.5 24q-35 0 -56 -15.5t-38 -48.5q-12 -25 -28.5 -80t-29.5 -121.5t-23.5 -132t-10.5 -112.5z" />
<glyph unicode="&#xf5;" horiz-adv-x="1042" d="M53 391q0 74 13.5 155t36 154.5t54 136t68.5 103.5q66 72 151 107.5t204 35.5q188 0 298.5 -100t112.5 -307q0 -72 -13 -152t-35.5 -154.5t-53.5 -140t-66 -106.5q-66 -78 -151.5 -114t-202.5 -36q-199 0 -307.5 106.5t-108.5 311.5zM283 1274q113 229 272 229 q49 0 81 -10t56.5 -23.5t46 -23.5t47.5 -10q29 0 51.5 21.5t49.5 55.5l160 -114q-113 -229 -271 -230q-49 0 -81.5 10.5t-57.5 24t-46.5 23.5t-47.5 10q-29 0 -51.5 -21.5t-49.5 -56.5zM385 332q0 -63 21.5 -91t68.5 -28q68 0 96 66q14 33 29.5 92t29 124.5t21.5 130 t8 109.5q0 59 -21.5 83t-66.5 24q-35 0 -56 -15.5t-38 -48.5q-12 -25 -28.5 -80t-29.5 -121.5t-23.5 -132t-10.5 -112.5z" />
<glyph unicode="&#xf6;" horiz-adv-x="1042" d="M53 391q0 74 13.5 155t36 154.5t54 136t68.5 103.5q66 72 151 107.5t204 35.5q188 0 298.5 -100t112.5 -307q0 -72 -13 -152t-35.5 -154.5t-53.5 -140t-66 -106.5q-66 -78 -151.5 -114t-202.5 -36q-199 0 -307.5 106.5t-108.5 311.5zM283 1325q0 72 45 120t110 48 q68 0 118 -48t50 -120q0 -70 -48 -117t-114 -47t-113.5 47t-47.5 117zM385 332q0 -63 21.5 -91t68.5 -28q68 0 96 66q14 33 29.5 92t29 124.5t21.5 130t8 109.5q0 59 -21.5 83t-66.5 24q-35 0 -56 -15.5t-38 -48.5q-12 -25 -28.5 -80t-29.5 -121.5t-23.5 -132t-10.5 -112.5z M705 1325q0 72 45 120t110 48q70 0 119 -48t49 -120q0 -70 -48 -117t-114 -47q-68 0 -114.5 47t-46.5 117z" />
<glyph unicode="&#xf7;" horiz-adv-x="1191" d="M98 479l66 316h975l-66 -316h-975zM340 186q0 39 15.5 75t43 62.5t62.5 42t76 15.5q39 0 75.5 -15.5t63 -42t43 -62.5t16.5 -75q0 -41 -16.5 -76.5t-43 -63.5t-63 -43t-75.5 -15q-41 0 -76 15t-62.5 43t-43 63.5t-15.5 76.5zM500 1092q0 39 15 74.5t43 62t62.5 42 t75.5 15.5q39 0 76 -15.5t63.5 -42t43 -62.5t16.5 -74q0 -41 -16.5 -77t-43 -63.5t-63.5 -43t-76 -15.5q-41 0 -75.5 15.5t-62.5 43t-43 63.5t-15 77z" />
<glyph unicode="&#xf8;" horiz-adv-x="1042" d="M-68 -49l168 215q-47 94 -47 225q0 74 13.5 155t36 154.5t54 136t68.5 103.5q66 72 151 107.5t204 35.5q115 0 206 -41l152 195l170 -131l-166 -211q47 -90 49 -219q0 -72 -13 -152t-35.5 -154.5t-53.5 -140t-66 -106.5q-66 -78 -151.5 -114t-202.5 -36q-127 0 -215 43 l-154 -196zM408 559l217 277q-23 12 -54 12q-67 -1 -98 -64q-14 -29 -31.5 -90t-33.5 -135zM416 223q18 -16 59 -16q72 0 100 65q16 35 33 99.5t31 136.5z" />
<glyph unicode="&#xf9;" d="M37 225q0 47 12 107l154 725h332l-150 -707q-2 -10 -3 -17t-1 -22q0 -41 16.5 -55t42.5 -14q31 0 59.5 10t63.5 35l162 770h332l-168 -787q-10 -51 -15.5 -121.5t-5.5 -148.5h-290v121q-61 -63 -139.5 -105.5t-172.5 -42.5q-109 0 -169 66.5t-60 185.5zM334 1360l178 250 l371 -303l-125 -168z" />
<glyph unicode="&#xfa;" d="M37 225q0 47 12 107l154 725h332l-150 -707q-2 -10 -3 -17t-1 -22q0 -41 16.5 -55t42.5 -14q31 0 59.5 10t63.5 35l162 770h332l-168 -787q-10 -51 -15.5 -121.5t-5.5 -148.5h-290v121q-61 -63 -139.5 -105.5t-172.5 -42.5q-109 0 -169 66.5t-60 185.5zM442 1317l441 299 l143 -264l-487 -215z" />
<glyph unicode="&#xfb;" d="M37 225q0 47 12 107l154 725h332l-150 -707q-2 -10 -3 -17t-1 -22q0 -41 16.5 -55t42.5 -14q31 0 59.5 10t63.5 35l162 770h332l-168 -787q-10 -51 -15.5 -121.5t-5.5 -148.5h-290v121q-61 -63 -139.5 -105.5t-172.5 -42.5q-109 0 -169 66.5t-60 185.5zM328 1272l303 276 h168l205 -276l-113 -135l-209 151l-272 -151z" />
<glyph unicode="&#xfc;" d="M37 225q0 47 12 107l154 725h332l-150 -707q-2 -10 -3 -17t-1 -22q0 -41 16.5 -55t42.5 -14q31 0 59.5 10t63.5 35l162 770h332l-168 -787q-10 -51 -15.5 -121.5t-5.5 -148.5h-290v121q-61 -63 -139.5 -105.5t-172.5 -42.5q-109 0 -169 66.5t-60 185.5zM293 1325 q0 72 45 120t111 48q68 0 117.5 -48t49.5 -120q0 -70 -47.5 -117t-113.5 -47t-114 47t-48 117zM715 1325q0 72 45 120t110 48q70 0 119 -48t49 -120q0 -70 -47.5 -117t-113.5 -47q-68 0 -115 47t-47 117z" />
<glyph unicode="&#xfd;" horiz-adv-x="997" d="M-47 -154q74 10 127 22.5t92 31t67.5 43t53.5 57.5h-66l-106 1057h350l12 -482q2 -72 1 -140t-7 -116h2q16 49 36 108.5t50 133.5l201 496h336l-508 -1059q-57 -115 -112.5 -188.5t-124 -119.5t-158.5 -69.5t-217 -36.5zM410 1317l440 299l143 -264l-487 -215z" />
<glyph unicode="&#xfe;" horiz-adv-x="1036" d="M-98 -389l401 1894h332l-109 -514q53 41 111.5 66.5t118.5 25.5q117 0 183.5 -77.5t66.5 -243.5q0 -88 -13.5 -187.5t-40 -194.5t-67.5 -177t-97 -137q-53 -53 -116.5 -73t-134.5 -20q-78 0 -130.5 29t-78.5 55l-95 -446h-331zM373 270q14 -16 35.5 -30.5t56.5 -14.5 q39 0 64.5 17.5t45.5 64.5q14 33 30 89.5t29 117.5t21.5 118.5t8.5 94.5q2 51 -16.5 70.5t-55.5 19.5q-31 0 -62.5 -16.5t-50.5 -32.5z" />
<glyph unicode="&#xff;" horiz-adv-x="997" d="M-47 -154q74 10 127 22.5t92 31t67.5 43t53.5 57.5h-66l-106 1057h350l12 -482q2 -72 1 -140t-7 -116h2q16 49 36 108.5t50 133.5l201 496h336l-508 -1059q-57 -115 -112.5 -188.5t-124 -119.5t-158.5 -69.5t-217 -36.5zM268 1325q0 72 45 120t111 48q68 0 118 -48 t50 -120q0 -70 -48 -117t-114 -47t-114 47t-48 117zM690 1325q0 72 45 120t111 48q70 0 119 -48t49 -120q0 -70 -48 -117t-114 -47q-68 0 -115 47t-47 117z" />
<glyph unicode="&#x152;" horiz-adv-x="1609" d="M90 487q0 100 14.5 210t43 214.5t73.5 195.5t105 155q72 78 180 121.5t258 43.5h948l-61 -292h-412l-53 -252h323l-61 -283h-324l-63 -303h448l-63 -297h-899q-104 0 -188.5 28.5t-143.5 89t-92 151.5t-33 218zM453 492q0 -59 12 -96.5t33.5 -60t49 -30.5t60.5 -8h103 l178 838h-127q-29 0 -56.5 -4.5t-53 -17.5t-48 -37.5t-43.5 -65.5q-20 -43 -39.5 -109.5t-35 -140.5t-24.5 -145.5t-9 -122.5z" />
<glyph unicode="&#x153;" horiz-adv-x="1587" d="M53 391q0 74 13.5 155t36 154.5t54 136t68.5 103.5q66 72 150 107.5t203 35.5q201 0 284 -122q66 59 143.5 90.5t184.5 31.5q174 0 270 -86t96 -231q0 -104 -40.5 -175t-117.5 -115t-187.5 -63.5t-249.5 -19.5v-12q0 -86 36.5 -119t100.5 -33q98 0 164.5 27t119.5 61 l64 -237q-55 -41 -155.5 -74t-217.5 -33q-115 0 -189.5 30t-121.5 85q-59 -57 -130 -86t-169 -29q-199 0 -304.5 106.5t-105.5 311.5zM385 332q0 -63 21.5 -91t68.5 -28q68 0 96 66q14 33 29.5 92t29 124.5t21.5 130t8 109.5q0 59 -21.5 83t-66.5 24q-35 0 -56 -15.5 t-38 -48.5q-12 -25 -28.5 -80t-29.5 -121.5t-23.5 -132t-10.5 -112.5zM989 610q51 0 97.5 6.5t82 23.5t57 46t21.5 74q0 47 -21.5 67.5t-56.5 20.5t-64 -14.5t-54 -55.5q-16 -29 -33 -72.5t-29 -95.5z" />
<glyph unicode="&#x178;" horiz-adv-x="1128" d="M209 1427h358l54 -262q16 -78 20 -150.5t4 -146.5q23 74 50.5 136.5t62.5 123.5l160 299h382l-548 -827l-127 -600h-353l134 629zM403 1683q0 72 45.5 120t110.5 48q68 0 118 -48t50 -120q0 -70 -48 -116.5t-114 -46.5t-114 47t-48 116zM825 1683q0 72 45 120t111 48 q70 0 119 -48t49 -120q0 -70 -48 -116.5t-114 -46.5q-68 0 -115 47t-47 116z" />
<glyph unicode="&#x2c6;" horiz-adv-x="1028" d="M336 1272l303 276h168l205 -276l-113 -135l-209 151l-272 -151z" />
<glyph unicode="&#x2dc;" horiz-adv-x="1028" d="M303 1274q113 229 272 229q49 0 81 -10t56.5 -23.5t46 -23.5t48.5 -10q29 0 51.5 21.5t48.5 55.5l160 -114q-113 -229 -270 -230q-49 0 -82 10.5t-57.5 24t-46 23.5t-48.5 10q-29 0 -51.5 -21.5t-48.5 -56.5z" />
<glyph unicode="&#x2000;" horiz-adv-x="993" />
<glyph unicode="&#x2001;" horiz-adv-x="1987" />
<glyph unicode="&#x2002;" horiz-adv-x="993" />
<glyph unicode="&#x2003;" horiz-adv-x="1987" />
<glyph unicode="&#x2004;" horiz-adv-x="662" />
<glyph unicode="&#x2005;" horiz-adv-x="496" />
<glyph unicode="&#x2006;" horiz-adv-x="331" />
<glyph unicode="&#x2007;" horiz-adv-x="331" />
<glyph unicode="&#x2008;" horiz-adv-x="248" />
<glyph unicode="&#x2009;" horiz-adv-x="397" />
<glyph unicode="&#x200a;" horiz-adv-x="110" />
<glyph unicode="&#x2010;" horiz-adv-x="663" d="M61 418l66 305h491l-65 -305h-492z" />
<glyph unicode="&#x2011;" horiz-adv-x="663" d="M61 418l66 305h491l-65 -305h-492z" />
<glyph unicode="&#x2012;" horiz-adv-x="663" d="M61 418l66 305h491l-65 -305h-492z" />
<glyph unicode="&#x2013;" horiz-adv-x="1083" d="M61 410l62 292h911l-61 -292h-912z" />
<glyph unicode="&#x2014;" horiz-adv-x="1413" d="M61 410l62 292h1241l-61 -292h-1242z" />
<glyph unicode="&#x2018;" horiz-adv-x="561" d="M190 1055q0 94 36 168.5t95.5 129t139.5 88.5t168 46l6 -144q-68 -18 -119 -60t-67 -91q53 -18 87.5 -63.5t34.5 -104.5q0 -37 -15 -70.5t-41 -59.5t-60.5 -40t-73.5 -14q-78 0 -134.5 55t-56.5 160z" />
<glyph unicode="&#x2019;" horiz-adv-x="561" d="M180 985q68 18 119 60t68 92q-53 18 -88 63t-35 105q0 37 15 70.5t41 59t60.5 40t73.5 14.5q78 0 134.5 -55.5t56.5 -159.5q0 -94 -36 -169t-95.5 -129t-139.5 -88t-168 -46z" />
<glyph unicode="&#x201a;" horiz-adv-x="561" d="M-59 -147q68 18 119 60t67 91q-53 18 -88 63.5t-35 104.5q0 37 15.5 70.5t41 59.5t60.5 40t74 14q78 0 134 -55t56 -160q0 -94 -36 -168.5t-95 -129t-139 -88.5t-168 -46z" />
<glyph unicode="&#x201c;" horiz-adv-x="1048" d="M205 1055q0 94 35.5 168.5t95 129t139.5 88.5t168 46l6 -144q-68 -18 -119 -60t-67 -91q53 -18 88 -63.5t35 -104.5q0 -37 -15.5 -70.5t-41 -59.5t-60.5 -40t-74 -14q-78 0 -134 55t-56 160zM690 1055q0 94 36 168.5t95.5 129t139 88.5t167.5 46l7 -144q-68 -18 -119 -60 t-68 -91q53 -18 88 -63.5t35 -104.5q0 -37 -15.5 -70.5t-41 -59.5t-60 -40t-73.5 -14q-78 0 -134.5 55t-56.5 160z" />
<glyph unicode="&#x201d;" horiz-adv-x="1046" d="M180 985q68 18 119 60t68 92q-53 18 -88 63t-35 105q0 37 15 70.5t41 59t60.5 40t73.5 14.5q78 0 134.5 -55.5t56.5 -159.5q0 -94 -36 -169t-95.5 -129t-139.5 -88t-168 -46zM666 985q68 18 119 60t67 92q-53 18 -88 63t-35 105q0 37 15.5 70.5t41 59t60.5 40t74 14.5 q78 0 134 -55.5t56 -159.5q0 -94 -36 -169t-95 -129t-139 -88t-168 -46z" />
<glyph unicode="&#x201e;" horiz-adv-x="1046" d="M-59 -147q68 18 119 60t67 91q-53 18 -88 63.5t-35 104.5q0 37 15.5 70.5t41 59.5t60.5 40t74 14q78 0 134 -55t56 -160q0 -94 -36 -168.5t-95 -129t-139 -88.5t-168 -46zM426 -147q68 18 119 60t67 91q-53 18 -88 63.5t-35 104.5q0 37 15.5 70.5t41 59.5t60.5 40t74 14 q78 0 134 -55t56 -160q0 -94 -35.5 -168.5t-95 -129t-139.5 -88.5t-168 -46z" />
<glyph unicode="&#x2022;" horiz-adv-x="866" d="M133 651q0 76 30 142.5t80 118t115.5 81t137.5 29.5q66 0 121 -23.5t96 -63.5t63.5 -95.5t22.5 -118.5q0 -76 -28 -143.5t-77 -118.5t-115.5 -82t-142.5 -31q-66 0 -121 23.5t-95 65.5t-63.5 97.5t-23.5 118.5z" />
<glyph unicode="&#x2026;" horiz-adv-x="1599" d="M23 174q0 39 15 74t41.5 61.5t61.5 42t76 15.5q39 0 75 -15.5t63.5 -42t43 -61.5t15.5 -74q0 -41 -15.5 -77t-43 -62.5t-63.5 -42t-75 -15.5q-41 0 -76 15.5t-61.5 42t-41.5 62.5t-15 77zM528 174q0 39 15.5 74t42 61.5t61.5 42t76 15.5q39 0 75 -15.5t63.5 -42t43 -61.5 t15.5 -74q0 -41 -15.5 -77t-43 -62.5t-63.5 -42t-75 -15.5q-41 0 -76 15.5t-61.5 42t-42 62.5t-15.5 77zM1034 174q0 39 15.5 74t42 61.5t61.5 42t76 15.5q39 0 74.5 -15.5t63.5 -42t43 -61.5t15 -74q0 -41 -15 -77t-43 -62.5t-63.5 -42t-74.5 -15.5q-41 0 -76 15.5 t-61.5 42t-42 62.5t-15.5 77z" />
<glyph unicode="&#x202f;" horiz-adv-x="397" />
<glyph unicode="&#x2039;" horiz-adv-x="659" d="M51 530l402 492l204 -160l-301 -373l150 -348l-248 -114z" />
<glyph unicode="&#x203a;" horiz-adv-x="659" d="M0 186l301 373l-149 348l247 115l207 -504l-401 -491z" />
<glyph unicode="&#x205f;" horiz-adv-x="496" />
<glyph unicode="&#x20ac;" horiz-adv-x="1177" d="M33 428l37 174h155q6 57 19 117h-150l37 174h158q29 88 66.5 161.5t82.5 123.5q80 90 185.5 129t232.5 34q133 0 217 -36.5t146 -90.5l-144 -237q-39 37 -90 63.5t-117 26.5q-55 0 -101 -24.5t-75 -84.5q-8 -14 -14 -30.5t-12 -34.5h278l-37 -174h-289q-6 -29 -11 -58.5 t-9 -58.5h285l-37 -174h-262q2 -100 40 -140t103 -40q74 0 138.5 25.5t115.5 58.5l80 -256q-59 -39 -147.5 -71t-217.5 -32q-227 0 -349 113t-130 342h-184z" />
<glyph unicode="&#x2122;" horiz-adv-x="1640" d="M205 1214l45 213h590l-45 -213h-174l-138 -643h-241l137 643h-174zM760 571l182 856h270l11 -346q2 -41 -1 -75.5t-8 -81.5h3q16 47 26 81.5t29 75.5l149 346h316l-183 -856h-235l59 275q41 186 76 299h-2q-23 -55 -46.5 -118.5t-57.5 -135.5l-113 -229h-154l-14 204 q-4 66 -1 143.5t7 135.5h-2q-6 -53 -20.5 -135t-32.5 -168l-57 -271h-201z" />
<glyph unicode="&#xe000;" horiz-adv-x="1054" d="M0 0v1055h1055v-1055h-1055z" />
<glyph unicode="&#xfb01;" horiz-adv-x="1079" d="M-94 -98q27 23 50.5 43t42.5 45.5t34.5 59.5t25.5 83l136 678h-105l53 246h101l24 119q23 111 64 179t96 106t124 51.5t146 13.5q106 0 184.5 -21.5t137.5 -54.5l-80 -244q-53 23 -104.5 38.5t-110.5 15.5q-53 0 -87 -25t-48 -90l-19 -88h525l-226 -1057h-331l172 811 h-189l-143 -713q-16 -80 -42 -137t-66 -101t-99 -81t-143 -74z" />
<glyph unicode="&#xfb02;" horiz-adv-x="1153" d="M-94 -98q27 23 50.5 43t42.5 45.5t34.5 59.5t25.5 83l136 678h-105l53 246h101l26 127q23 111 64 177t95 103t119.5 49.5t137.5 12.5q41 0 91 -5t97 -16h324l-254 -1204q-4 -10 -4 -19.5v-17.5q0 -33 15.5 -42t35.5 -9h14.5t14.5 2l16 4l-12 -205q-23 -12 -69 -25.5 t-103 -13.5q-129 0 -185.5 69t-56.5 187q0 72 19 158l184 868q-20 6 -45 10.5t-57 4.5q-53 0 -79 -23.5t-36 -70.5l-25 -121h111l-53 -246h-107l-143 -713q-16 -80 -42 -137t-66 -101t-99 -81t-143 -74z" />
<glyph unicode="&#xfb03;" horiz-adv-x="1599" d="M-94 -98q27 23 50.5 43t42.5 45.5t34.5 59.5t25.5 83l136 678h-105l53 246h101l26 129q20 104 58.5 166.5t86.5 96.5t105.5 45t116.5 11q53 0 103.5 -11t78.5 -30l-88 -223q-25 14 -59 14q-35 0 -50.5 -18t-25.5 -61l-25 -119h193l24 119q23 111 64 179t96.5 106 t124 51.5t146.5 13.5q106 0 184 -21.5t137 -54.5l-80 -244q-53 23 -104 38.5t-111 15.5q-53 0 -87 -25t-48 -90l-18 -88h524l-225 -1057h-332l172 811h-189l-137 -680q-16 -80 -40.5 -136t-64.5 -101.5t-96.5 -81t-136.5 -74.5l-123 196q27 23 48.5 43.5t39 45t30.5 59.5 t24 84l129 645h-193l-143 -713q-16 -80 -42 -137t-66 -101t-99 -81t-143 -74z" />
<glyph unicode="&#xfb04;" horiz-adv-x="1673" d="M-94 -98q27 23 50.5 43t42.5 45.5t34.5 59.5t25.5 83l136 678h-105l53 246h101l26 129q20 104 58.5 166.5t86.5 96.5t105.5 45t116.5 11q53 0 100 -10t76 -29l-88 -223q-23 12 -53 12q-35 0 -50.5 -17t-25.5 -62l-25 -119h193l27 127q23 111 63.5 177t95 103t120 49.5 t136.5 12.5q41 0 91.5 -5t97.5 -16h323l-254 -1204q-4 -10 -4 -19.5v-17.5q0 -33 15.5 -42t35.5 -9h14.5t14.5 2l16 4l-12 -205q-23 -12 -68.5 -25.5t-103.5 -13.5q-129 0 -185.5 69t-56.5 187q0 72 19 158l184 868q-20 6 -44.5 10.5t-57.5 4.5q-53 0 -79 -23.5t-36 -70.5 l-24 -121h110l-53 -246h-107l-137 -680q-16 -80 -40.5 -136t-64.5 -101.5t-96.5 -81t-136.5 -74.5l-123 196q27 23 48.5 43.5t39 45t30.5 59.5t24 84l129 645h-193l-143 -713q-16 -80 -42 -137t-66 -101t-99 -81t-143 -74z" />
</font>
</defs>
</svg>
